<?xml version="1.0" encoding="utf-8"?>
<!-- Generator: Adobe Illustrator 16.0.4, SVG Export Plug-In . SVG Version: 6.00 Build 0)  -->
<!DOCTYPE svg PUBLIC "-//W3C//DTD SVG 1.1//EN" "http://www.w3.org/Graphics/SVG/1.1/DTD/svg11.dtd">
<svg version="1.1" id="Layer_1" xmlns="http://www.w3.org/2000/svg" xmlns:xlink="http://www.w3.org/1999/xlink" x="0px" y="0px"
	 width="200px" height="150px" viewBox="0 0 200 150" enable-background="new 0 0 200 150" xml:space="preserve">
<g>
	<path fill="#FFCC00" d="M64.808,96.066c0-2.582-0.609-3.797-2.582-3.797H58.73c-0.458,0-0.612-0.154-0.612-0.688v-1.75
		c0-0.454,0.153-0.604,0.761-0.604c0.764,0,4.406,0.229,11.707,0.229c6.383,0,10.028-0.229,10.942-0.229
		c0.453,0,0.605,0.151,0.605,0.533v1.901c0,0.455-0.151,0.608-0.605,0.608h-3.194c-2.28,0-3.645,1.36-3.722,2.961
		c-0.078,0.916-0.228,5.473-0.228,9.877v9.43c0,3.793,0.074,9.189,0.228,11.625c0.229,3.496,0.836,6.986,2.662,9.423
		c2.584,3.49,6.688,4.709,10.333,4.709c3.491,0,7.75-1.374,10.18-3.646c2.895-2.891,4.408-7.297,4.408-12.848v-13.68
		c0-6.08-0.609-12.771-0.838-14.514c-0.229-1.979-1.44-3.34-3.114-3.34h-2.737c-0.453,0-0.607-0.23-0.607-0.539v-1.902
		c0-0.454,0.153-0.604,0.607-0.604c0.763,0,4.257,0.229,9.271,0.229c4.714,0,7.145-0.229,7.75-0.229
		c0.687,0,0.764,0.229,0.764,0.604v1.75c0,0.455-0.077,0.688-0.458,0.688H110.1c-2.74,0-3.043,2.125-3.191,2.961
		c-0.15,0.918-0.15,11.551-0.15,12.541c0,1.062-0.15,14.284-0.451,17.325c-0.461,6.226-2.285,10.94-6.388,14.585
		c-3.193,2.893-8.057,4.711-13.831,4.711c-3.648,0-8.056-0.604-10.943-1.818c-4.41-1.822-7.449-5.32-8.97-10.18
		c-1.065-3.351-1.365-8.367-1.365-18.324L64.808,96.066L64.808,96.066z"/>
	<path fill="#FFCC00" d="M115.42,126.309c0.303,0,0.456,0.153,0.456,0.607c0.151,2.43,0.763,5.32,2.89,8.668
		c2.277,3.641,6.23,5.466,10.03,5.466c4.099,0,9.875-2.581,9.875-8.886c0-6.988-3.188-9.275-11.246-12.311
		c-2.431-0.908-7.446-3.043-11.094-6.381c-2.583-2.439-3.8-6.232-3.8-10.869c0-4.256,1.673-7.75,5.318-10.646
		c3.043-2.578,6.385-3.646,10.793-3.646c5.014,0,8.053,1.211,9.571,1.824c0.763,0.305,1.218,0.147,1.599-0.229l0.982-0.986
		c0.309-0.307,0.607-0.451,1.062-0.451c0.457,0,0.608,0.451,0.608,1.213c0,1.217,1.218,11.854,1.218,12.615
		c0,0.307-0.15,0.453-0.457,0.531l-1.215,0.385c-0.308,0.072-0.611,0-0.763-0.463c-0.763-2.127-1.978-5.168-4.714-8.051
		c-1.975-2.128-4.403-3.192-7.898-3.192c-6.082,0-8.514,4.862-8.514,7.677c0,2.586,0.307,4.859,2.126,6.838
		c1.979,1.979,6.231,3.799,9.274,4.717c4.4,1.365,8.051,2.886,10.939,5.922c2.428,2.588,3.795,5.775,3.795,10.873
		c0,9.268-6.074,16.861-16.104,16.861c-6.232,0-9.881-1.365-12.92-3.646c-0.911-0.607-1.366-0.917-1.821-0.917
		s-0.763,0.608-1.216,1.371c-0.454,0.759-0.76,0.915-1.365,0.915s-0.916-0.458-0.916-1.219c0.152-0.918,1.215-13.228,1.365-14.135
		c0.08-0.457,0.154-0.604,0.458-0.604L115.42,126.309z"/>
	<path fill="#FFCC00" d="M199.77,130.869c0.23,0.227,0.306,0.453,0.15,0.758c-4.559,6.539-11.855,12.768-22.643,12.768
		c-9.731,0-15.199-2.89-19.911-7.146c-5.625-5.011-8.207-13.827-8.207-20.513c0-7.449,2.431-14.592,7.75-20.371
		c4.103-4.406,10.634-8.053,19.756-8.053c6.994,0,12.614,2.127,15.349,3.646c1.062,0.61,1.37,0.61,1.521,0l0.604-1.979
		c0.152-0.451,0.305-0.451,1.215-0.451c0.912,0,1.066,0.147,1.066,1.22c0,1.367,1.518,13.521,1.818,15.8
		c0.08,0.459,0,0.688-0.303,0.771l-1.444,0.455c-0.38,0.146-0.606-0.156-0.834-0.77c-0.916-2.732-2.737-6.527-5.927-9.875
		c-3.347-3.191-7.293-5.624-13.226-5.624c-12.153,0-17.173,10.944-17.173,21.89c0,4.707,1.37,13.676,6.99,19.754
		c5.021,5.317,9.424,5.924,13.07,5.924c8.356,0,14.965-4.176,18.16-8.812c0.377-0.533,0.68-0.758,0.912-0.533L199.77,130.869z"/>
	<g>
		<path fill="#FFFFFF" d="M45.817,124.244c-3.136,7.646-9.134,18.109-19.952,24.703c-10.836-6.562-16.866-17.021-20.021-24.653
			c-2.902-7.034-3.966-13.009-4.232-14.761c1.295-0.729,2.588-1.08,4.047-1.083h0.015c1.02,0,2.463,0.188,3.294,0.427l0.459,0.137
			c0.436,0.129,0.883,0.258,1.341,0.387c1.6,0.463,3.419,0.933,4.785,0.933h0.009c1.533-0.003,3.917-0.203,6.603-1.146
			c0.767-0.271,1.681-0.562,2.654-0.689l0.884-0.062c0.016,0,0.034,0,0.05,0l1.367,0.121c0.83,0.146,1.612,0.392,2.267,0.621
			c2.675,0.938,5.055,1.133,6.591,1.133h0.021c0.925-0.002,2.128-0.213,3.79-0.656c0.681-0.184,1.37-0.389,2.027-0.581l0.771-0.229
			c0.821-0.234,2.326-0.433,3.354-0.438h0.011c1.454,0,2.787,0.354,4.066,1.046C49.761,111.165,48.721,117.166,45.817,124.244
			 M0.945,98.156l15.759,3.449c-0.139,0.242-0.268,0.484-0.388,0.734l-15.423-2.056C0.895,99.607,0.915,98.889,0.945,98.156
			 M1.489,92.396l16.369,7.582c-0.31,0.357-0.602,0.736-0.863,1.143L1.023,96.645C1.117,95.279,1.267,93.857,1.489,92.396
			 M1.918,89.938c0.633,0.143,1.883,0.381,3.5,0.554l13.294,8.601c-0.179,0.161-0.345,0.335-0.509,0.51L1.756,90.797
			C1.811,90.51,1.859,90.227,1.918,89.938 M8.999,90.68c1.708,0,3.32-0.146,4.822-0.426l6.709,7.518
			c-0.508,0.295-0.987,0.631-1.438,1.004l-11.08-8.107C8.338,90.675,8.662,90.682,8.999,90.68 M17.563,89.234l4.451,7.824
			c-0.301,0.111-0.596,0.24-0.883,0.387l-5.663-7.566C16.203,89.682,16.9,89.466,17.563,89.234 M23.451,86.395l1.355,10.013
			c-0.751,0.069-1.478,0.226-2.173,0.444l-3.732-8.121C20.77,87.977,22.293,87.139,23.451,86.395 M25.787,84.686
			c0.33,0.279,0.667,0.541,1.006,0.797l-0.604,10.896c-0.125-0.008-0.249-0.021-0.379-0.021h-0.014c-0.131,0-0.26,0.019-0.391,0.021
			l-0.604-10.915C25.238,85.143,25.573,84.87,25.787,84.686 M28.114,86.395c1.591,1.028,3.167,1.791,4.514,2.332l-3.726,8.105
			c-0.69-0.212-1.407-0.364-2.146-0.432L28.114,86.395z M33.973,89.23c0.95,0.324,1.695,0.522,2.102,0.625l-5.669,7.58
			c-0.286-0.146-0.582-0.272-0.885-0.389L33.973,89.23z M37.76,90.198c1.662,0.292,3.383,0.438,5.146,0.438
			c0.213,0,0.413-0.007,0.618-0.014L32.441,98.74c-0.448-0.365-0.926-0.696-1.429-0.982L37.76,90.198z M46.094,90.477
			c1.677-0.172,2.93-0.437,3.565-0.586c0.058,0.286,0.108,0.569,0.163,0.858l-16.483,8.819c-0.165-0.176-0.338-0.344-0.52-0.504
			L46.094,90.477z M50.099,92.35c0.23,1.494,0.385,2.949,0.48,4.344l-15.96,4.475c-0.278-0.43-0.583-0.83-0.919-1.215L50.099,92.35z
			 M50.71,100.309l-15.409,2.062c-0.12-0.246-0.25-0.492-0.388-0.729l15.747-3.449C50.688,98.922,50.708,99.633,50.71,100.309
			 M46.011,103.613c-0.98,0.004-2.596,0.18-3.6,0.473l-0.714,0.211c-0.67,0.197-1.374,0.408-2.073,0.596l0,0
			c-0.956,0.254-2.322,0.586-3.394,0.615c-0.12-0.908-0.353-1.779-0.69-2.601l15.159-1.138c-0.021,1.051-0.067,2.019-0.128,2.881
			C49.185,104.006,47.579,103.646,46.011,103.613 M45.947,105.552h-0.012c-0.983,0-2.603,0.179-3.604,0.472l-0.694,0.207
			c-0.673,0.196-1.382,0.406-2.084,0.599l0.117,0.438l-0.117-0.438c-1.006,0.271-2.47,0.628-3.56,0.628h-0.017
			c-1.462,0-3.733-0.188-6.293-1.082c-0.649-0.229-1.517-0.508-2.427-0.663c-0.517-0.089-1.002-0.13-1.485-0.13
			c-0.358,0-0.705,0.021-1.062,0.066c-1.051,0.138-2.027,0.447-2.843,0.732c-2.562,0.901-4.845,1.096-6.308,1.098h-0.006
			c-1.244,0-2.991-0.445-4.541-0.891l-1.797-0.523c-0.909-0.266-2.43-0.465-3.546-0.465H5.652c-1.547,0.002-3.059,0.383-4.432,1.07
			c-0.032-0.297-0.064-0.617-0.095-0.965c1.355-0.717,3.008-1.141,4.604-1.141h0.014c1.024,0,2.467,0.186,3.295,0.428l1.8,0.523
			l0.124-0.438l-0.122,0.438c1.686,0.479,3.435,0.928,4.787,0.928h0.009c1.532-0.002,3.923-0.207,6.602-1.15
			c0.767-0.271,1.68-0.564,2.65-0.689l0.951-0.062l1.354,0.116c0.844,0.146,1.654,0.41,2.267,0.626
			c2.673,0.938,5.055,1.132,6.588,1.132h0.02c0.925,0,2.095-0.202,3.791-0.656l0,0c0.705-0.188,1.417-0.4,2.092-0.602l0.711-0.209
			c0.818-0.24,2.323-0.438,3.351-0.438h0.009c1.538,0,3.15,0.4,4.474,1.088c-0.031,0.368-0.064,0.705-0.095,1.021
			C49.02,105.932,47.497,105.552,45.947,105.552 M25.846,103.643l-0.001,0.066l-0.002-0.066c-0.353,0.002-0.709,0.025-1.06,0.072
			c-1.058,0.135-2.033,0.445-2.845,0.732c-2.2,0.777-4.19,1.027-5.636,1.084c0.655-4.737,4.654-8.264,9.497-8.271h0.013
			c4.782,0,8.833,3.573,9.504,8.244c-1.441-0.059-3.398-0.311-5.559-1.064c-0.649-0.228-1.513-0.506-2.423-0.664l-0.006,0.021
			l0.003-0.021C26.812,103.684,26.326,103.643,25.846,103.643 M0.907,101.754l15.164,1.143c-0.335,0.826-0.564,1.709-0.683,2.631
			c-1.226-0.049-2.848-0.459-4.303-0.867l-1.797-0.525c-0.911-0.264-2.432-0.463-3.544-0.463H5.726c-1.609,0-3.266,0.403-4.679,1.08
			C0.982,103.857,0.929,102.854,0.907,101.754 M45.953,107.502h-0.014c-0.979,0.002-2.594,0.18-3.605,0.473l-0.773,0.229
			c-0.649,0.19-1.328,0.396-2.004,0.571l0.115,0.438l-0.116-0.438c-1.583,0.43-2.714,0.629-3.56,0.635h-0.02
			c-1.462,0-3.736-0.188-6.293-1.085c-0.69-0.242-1.523-0.515-2.426-0.663c-0.913-0.153-1.707-0.178-2.548-0.062
			c-1.059,0.143-2.031,0.449-2.844,0.735c-2.567,0.899-4.846,1.091-6.305,1.097h-0.009c-1.253,0-2.998-0.451-4.539-0.896
			l-0.124,0.438l0.122-0.438c-0.454-0.127-0.9-0.261-1.33-0.386l-0.466-0.137c-0.917-0.269-2.433-0.466-3.543-0.466H5.653
			c-1.507,0.005-2.851,0.353-4.185,1.048c-0.036-0.229-0.083-0.558-0.139-0.978c1.321-0.726,2.806-1.115,4.324-1.119h0.015
			c1.025,0,2.47,0.188,3.295,0.431l1.797,0.521l0.127-0.433l-0.124,0.433c1.688,0.479,3.438,0.929,4.788,0.929h0.009
			c1.533-0.004,3.922-0.206,6.603-1.148c0.77-0.272,1.686-0.564,2.651-0.688l0.883-0.062c0.019,0,0.038,0,0.057,0l1.359,0.119
			c0.841,0.146,1.654,0.404,2.27,0.625c2.68,0.936,5.058,1.131,6.591,1.131h0.019c0.922,0,2.089-0.203,3.791-0.658
			c0.712-0.191,1.426-0.402,2.106-0.604l0.694-0.202c0.813-0.24,2.317-0.438,3.352-0.438h0.009c1.521,0,3.014,0.387,4.341,1.111
			c-0.049,0.4-0.095,0.723-0.129,0.945C48.833,107.846,47.454,107.502,45.953,107.502 M51.554,97.996l-0.086-1.555
			c-0.104-1.438-0.276-2.944-0.52-4.482l-0.175-1.046c-0.098-0.556-0.208-1.114-0.331-1.679l-0.102-0.469l-0.461,0.133
			c-0.017,0.009-0.759,0.218-2.015,0.427l-3.039,0.345c-0.604,0.04-1.246,0.062-1.92,0.062c-1.772,0.004-3.503-0.155-5.172-0.461
			l-1.067-0.207c-0.019-0.008-0.039-0.014-0.056-0.016c-0.022-0.005-0.88-0.185-2.183-0.631l-1.416-0.525
			c-1.417-0.567-3.096-1.387-4.765-2.498l-1.392-1.019c-0.261-0.204-0.519-0.414-0.772-0.642l-0.31-0.269l-0.298,0.28
			c-0.01,0.009-0.259,0.242-0.733,0.615l-1.421,1.024c-1.163,0.771-2.78,1.696-4.793,2.515l-1.417,0.526
			c-0.685,0.232-1.403,0.457-2.163,0.648c-0.017,0.003-0.039,0.007-0.055,0.013l-1.233,0.271c-1.449,0.268-3.008,0.41-4.658,0.41
			c-0.811,0-1.581-0.028-2.306-0.082l-3.044-0.354c-1.205-0.19-1.948-0.376-1.962-0.381l-0.453-0.115l-0.102,0.456
			c-0.098,0.45-0.18,0.896-0.262,1.343L0.64,92c-0.236,1.51-0.401,2.982-0.5,4.393l-0.089,1.564
			C0.019,98.721,0.003,99.456,0,100.164l0.012,1.518c0.084,4.258,0.594,7.198,0.634,7.438c0.048,0.358,0.949,7.221,4.358,15.491
			c3.206,7.771,9.34,18.396,20.385,25.099l0.48,0.29l0.474-0.289c11.031-6.729,17.136-17.378,20.319-25.146
			c3.391-8.279,4.277-15.146,4.318-15.51c0.042-0.236,0.535-3.143,0.616-7.356l0.012-1.507
			C51.603,99.482,51.587,98.753,51.554,97.996"/>
		<path fill="#FFFFFF" d="M38.635,119.26c-0.138,0.141-0.32,0.215-0.517,0.215l-3.436,0.008c-0.405,0-0.731-0.332-0.733-0.729
			c0-0.398,0.33-0.729,0.731-0.729l0.56-0.004c0,0.004,0.003,0.008,0.003,0.01l0.009-0.01h0.736l2.133-0.006
			c0.4,0,0.729,0.332,0.729,0.731C38.847,118.938,38.771,119.121,38.635,119.26 M37.956,120.516
			c-0.129,0.129-0.31,0.193-0.529,0.193l-2.095,0.004c-0.351,0-0.595-0.26-0.688-0.689c0.014,0,0.025,0.002,0.037,0.002l3.436-0.004
			c0.019,0,0.036-0.014,0.055-0.014C38.132,120.221,38.07,120.402,37.956,120.516 M37.096,129.357l-1.391,0.002l-0.372-8.102l0,0
			l2.096-0.002c0.016,0,0.027-0.009,0.045-0.012L37.096,129.357z M38.018,130.497c0,0.325-0.267,0.593-0.592,0.593l-2,0.004
			l-0.004,0.275v-0.275c-0.326,0-0.586-0.269-0.586-0.596c0-0.324,0.265-0.588,0.586-0.588l1.131-0.004l0.869-0.002
			C37.748,129.902,38.018,130.17,38.018,130.497 M36.4,135.503c-0.24,0-0.436-0.19-0.436-0.442l-0.154-3.42h1.181l-0.157,3.428
			C36.834,135.311,36.641,135.503,36.4,135.503 M33.641,116.302c0-0.452,0.184-0.831,0.379-1.224c0.233-0.477,0.492-1,0.385-1.66
			c0.335,0.139,0.77,0.376,1.094,0.717c-0.006,0.006-0.013,0.014-0.018,0.016c-0.079,0.088-0.161,0.182-0.228,0.261
			c-0.016,0.015-1.4,1.358-0.405,3.062h-0.175c-0.098,0.004-0.193,0.021-0.289,0.037C34.232,117.441,33.643,117.13,33.641,116.302
			 M36.641,113.377c0.077-0.217,0.078-0.45,0.04-0.668c0.562,0.512,1.225,1.318,1.234,2.296c0.008,1.21-0.762,2.14-1.071,2.466
			h-0.196c-0.243-0.332-0.712-1.088-0.214-1.924c0.099-0.167,0.55-0.863,0.607-0.996c0.077-0.162,0.068-0.316,0.068-0.316
			c-0.077,0.123-0.209,0.271-0.209,0.271c-0.129,0.143-0.574,0.604-0.714,0.771c-0.733,0.892-0.242,1.863-0.048,2.195l-0.635,0.002
			c-1.094-1.469,0.077-2.621,0.147-2.689c0.082-0.092,0.16-0.18,0.236-0.262C36.189,114.188,36.454,113.902,36.641,113.377
			 M38.266,113.842c0.233-0.283,0.449-0.465,0.626-0.576c-0.138,1.26,0.517,2.52,0.529,2.529c0.312,1.078-0.753,1.6-1.015,1.711
			c-0.093-0.021-0.189-0.037-0.293-0.037h-0.554c0.405-0.521,0.905-1.391,0.898-2.469C38.457,114.545,38.266,113.842,38.266,113.842
			 M38.984,117.812c0.613-0.373,1.265-1.105,0.939-2.226c-0.006-0.017-0.779-1.507-0.4-2.69l0.127-0.402l-0.418,0.049
			c-0.065,0.008-0.633,0.105-1.288,0.838c-0.647-1.051-1.693-1.695-1.758-1.732l-1.04-0.612l0.675,1.004
			c0.12,0.179,0.438,0.774,0.304,1.151c-0.073,0.216-0.166,0.375-0.273,0.521c-0.692-0.699-1.746-0.986-1.791-0.997l-0.543-0.146
			l0.223,0.514c0.304,0.701,0.064,1.188-0.212,1.746c-0.206,0.42-0.436,0.891-0.433,1.469c0,0.75,0.371,1.232,0.731,1.504
			c-0.263,0.236-0.427,0.572-0.427,0.949c0.003,0.48,0.275,0.896,0.672,1.113c0.059,0.645,0.343,1.054,0.705,1.25l0.383,8.301
			c-0.498,0.119-0.875,0.549-0.875,1.082c0,0.57,0.431,1.025,0.975,1.109l0.16,3.465c0,0.539,0.44,0.979,0.979,0.979
			c0.542,0,0.979-0.438,0.979-0.964l0.16-3.47c0.57-0.062,1.024-0.531,1.021-1.117c0-0.553-0.4-0.992-0.92-1.092l0.382-8.295
			c0.116-0.055,0.227-0.115,0.318-0.206c0.249-0.249,0.382-0.616,0.41-1.074c0.093-0.054,0.19-0.106,0.271-0.181
			c0.239-0.242,0.375-0.565,0.372-0.901C39.393,118.377,39.235,118.049,38.984,117.812"/>
		<path fill="#FFFFFF" d="M16.695,119.502l-3.435,0.006c-0.404,0-0.732-0.326-0.732-0.73c0-0.193,0.074-0.379,0.211-0.516
			c0.138-0.143,0.321-0.217,0.517-0.217h0.558c0,0,0.003,0.006,0.003,0.007l0.009-0.007h0.739l1.08-0.002h1.051
			c0.403,0,0.728,0.326,0.733,0.729C17.431,119.176,17.1,119.502,16.695,119.502 M16.545,120.549
			c-0.125,0.124-0.306,0.188-0.539,0.188l-2.091,0.007c-0.346,0-0.594-0.267-0.689-0.692c0.015,0,0.023,0.01,0.036,0.01l3.434-0.01
			c0.021,0,0.04-0.007,0.059-0.007C16.716,120.254,16.656,120.438,16.545,120.549 M15.678,129.385l-1.392,0.004l-0.374-8.102
			c0.002,0,0.004,0,0.004,0l2.093-0.002c0.016,0,0.027-0.006,0.043-0.006L15.678,129.385z M16.595,130.523
			c0,0.153-0.06,0.309-0.173,0.418c-0.111,0.11-0.261,0.178-0.419,0.178h-1.996l-0.002,0.273v-0.273
			c-0.326,0-0.591-0.264-0.591-0.592c0-0.326,0.266-0.596,0.591-0.596h1.13l0.866-0.005
			C16.331,129.93,16.595,130.197,16.595,130.523 M14.982,135.527c-0.242,0-0.44-0.193-0.44-0.442l-0.155-3.417l1.185-0.004
			l-0.159,3.434C15.414,135.334,15.22,135.527,14.982,135.527 M12.221,116.33c0-0.451,0.184-0.83,0.38-1.225
			c0.233-0.479,0.492-1.002,0.385-1.662c0.334,0.143,0.772,0.377,1.09,0.717c-0.007,0.006-0.012,0.016-0.02,0.021
			c-0.076,0.079-0.158,0.172-0.225,0.245c-0.017,0.019-1.4,1.36-0.406,3.067h-0.17c-0.089,0-0.172,0.029-0.259,0.053
			C12.936,117.527,12.223,117.244,12.221,116.33 M15.218,113.407c0.078-0.22,0.078-0.453,0.041-0.675
			c0.561,0.511,1.228,1.315,1.236,2.299c0.01,1.209-0.761,2.139-1.073,2.465H15.23c-0.242-0.334-0.712-1.084-0.215-1.92
			c0.1-0.174,0.551-0.867,0.609-1.002c0.07-0.164,0.062-0.312,0.062-0.312c-0.076,0.124-0.206,0.271-0.206,0.271
			c-0.132,0.143-0.573,0.602-0.711,0.771c-0.738,0.895-0.243,1.862-0.053,2.194l-0.636,0.004c-1.092-1.467,0.075-2.621,0.147-2.688
			c0.08-0.096,0.159-0.181,0.231-0.258C14.768,114.219,15.032,113.932,15.218,113.407 M16.843,113.869
			c0.233-0.283,0.453-0.463,0.628-0.574c-0.137,1.258,0.517,2.514,0.53,2.525c0.311,1.078-0.754,1.603-1.013,1.711
			c-0.096-0.021-0.191-0.034-0.293-0.034h-0.554c0.404-0.528,0.908-1.39,0.897-2.47C17.036,114.57,16.843,113.869,16.843,113.869
			 M17.565,117.844c0.616-0.377,1.264-1.111,0.941-2.226c-0.008-0.017-0.783-1.503-0.404-2.692l0.13-0.406l-0.422,0.049
			c-0.063,0.01-0.629,0.104-1.283,0.839c-0.651-1.052-1.697-1.692-1.76-1.729l-1.031-0.607l0.668,0.996
			c0.125,0.189,0.436,0.779,0.301,1.158c-0.076,0.215-0.166,0.371-0.272,0.521c-0.69-0.7-1.745-0.989-1.792-0.997l-0.542-0.146
			l0.223,0.519c0.304,0.692,0.065,1.183-0.212,1.743c-0.204,0.414-0.434,0.892-0.434,1.47c0,0.806,0.404,1.265,0.732,1.506
			c-0.016,0.021-0.039,0.021-0.055,0.041c-0.24,0.244-0.372,0.562-0.371,0.899c0,0.479,0.272,0.896,0.669,1.115
			c0.056,0.582,0.317,1.03,0.707,1.25l0.383,8.301c-0.498,0.117-0.874,0.552-0.874,1.087c0,0.569,0.427,1.021,0.973,1.102L14,135.1
			c0,0.541,0.44,0.982,0.982,0.982c0.538,0,0.978-0.439,0.978-0.971l0.16-3.469c0.259-0.027,0.501-0.125,0.687-0.312
			c0.217-0.217,0.334-0.506,0.332-0.807c0-0.547-0.398-0.985-0.919-1.094l0.381-8.283c0.12-0.058,0.237-0.115,0.33-0.213
			c0.242-0.242,0.372-0.604,0.402-1.062c0.381-0.225,0.643-0.631,0.643-1.104C17.975,118.402,17.813,118.076,17.565,117.844"/>
		<path fill="#FFFFFF" d="M29.002,120.861c-0.215,0.213-0.499,0.334-0.798,0.334l-4.806,0.005c-0.622,0-1.128-0.505-1.133-1.124
			c0-0.625,0.509-1.135,1.131-1.135c0,0,3.2,0,3.208-0.006h1.6c0.622,0,1.126,0.506,1.126,1.125
			C29.332,120.363,29.216,120.646,29.002,120.861 M27.242,122.773l-2.93,0.002h-0.003c-0.468,0-0.893-0.506-1.056-1.041
			c0.049,0.004,0.096,0.016,0.145,0.016l4.806-0.01c0.059,0,0.117-0.012,0.177-0.018C28.207,122.244,27.732,122.773,27.242,122.773
			 M26.881,135.012l-2.157,0.002l-0.539-11.709c0.042,0.008,0.079,0.019,0.121,0.019h0.003l2.93-0.005
			c0.062,0,0.12-0.018,0.18-0.021L26.881,135.012z M28.17,136.492c0,0.518-0.421,0.938-0.936,0.938l-2.789,0.006
			c-0.517,0-0.94-0.422-0.941-0.938c0-0.516,0.419-0.938,0.935-0.938l2.105-0.004h0.683
			C27.746,135.557,28.167,135.977,28.17,136.492 M26.517,142.889c0,0.188-0.073,0.369-0.208,0.504
			c-0.135,0.14-0.312,0.211-0.503,0.211h-0.003c-0.19,0-0.371-0.071-0.505-0.211c-0.138-0.131-0.211-0.311-0.211-0.517l-0.227-4.894
			l1.882-0.006L26.517,142.889z M21.838,116.645c-0.001-0.651,0.26-1.188,0.539-1.762c0.358-0.729,0.727-1.479,0.487-2.459
			c0.481,0.178,1.206,0.52,1.72,1.094c-0.062,0.068-0.122,0.14-0.188,0.209c-0.106,0.115-0.217,0.234-0.313,0.35
			c-0.021,0.02-1.987,1.938-0.452,4.316h-0.238c-0.144,0-0.279,0.023-0.414,0.061C22.856,118.402,21.841,117.969,21.838,116.645
			 M25.843,112.52c0.148-0.416,0.095-0.879-0.014-1.272c0.845,0.688,2.095,1.974,2.105,3.587c0.016,1.771-1.138,3.125-1.558,3.561
			h-0.137c-0.225-0.344-0.471-0.889-0.471-1.515c-0.003-1.192,0.582-1.896,0.582-1.896s-0.738,0.502-0.866,1.604
			c-0.06,0.529,0.055,1.085,0.4,1.809h-0.701c-0.267-0.396-0.988-1.529-0.233-2.806c0.141-0.233,0.895-1.21,0.978-1.396
			c0.098-0.225,0.089-0.438,0.089-0.438c-0.105,0.178-0.288,0.375-0.288,0.375c-0.184,0.2-0.801,0.848-0.998,1.078
			c-1.121,1.359-0.197,2.854-0.006,3.186h-0.423c-1.646-2.148,0.081-3.852,0.177-3.941c0.11-0.126,0.216-0.24,0.318-0.354
			C25.221,113.639,25.584,113.24,25.843,112.52 M29.32,112.781c-0.353,1.693,0.215,3.088,0.231,3.127
			c0.45,1.554-0.662,2.318-1.005,2.514c-0.108-0.021-0.229-0.037-0.346-0.037l-1.093,0.002c0.57-0.688,1.385-1.951,1.373-3.558
			c-0.003-0.413-0.079-0.802-0.196-1.171C28.682,113.189,29.054,112.926,29.32,112.781 M29.142,118.676
			c0.562-0.441,1.377-1.383,0.924-2.947c-0.006-0.018-0.634-1.58-0.086-3.299l0.126-0.406l-0.421,0.053
			c-0.031,0.004-0.763,0.111-1.623,1.021c-0.827-1.73-2.607-2.804-2.705-2.859l-0.904-0.531l0.531,0.908
			c0.005,0.01,0.594,1.025,0.346,1.729c-0.11,0.309-0.244,0.541-0.398,0.762c-0.94-1.002-2.375-1.35-2.436-1.359l-0.528-0.125
			l0.217,0.498c0.445,1.021,0.1,1.723-0.298,2.533c-0.293,0.601-0.596,1.222-0.594,2.005c0,1.081,0.577,1.757,1.087,2.099
			c-0.4,0.312-0.661,0.789-0.661,1.328c0.002,0.654,0.388,1.221,0.941,1.496c0.091,0.621,0.465,1.26,0.99,1.564l-0.017,0.002
			l0.55,11.902c-0.695,0.123-1.224,0.729-1.224,1.455c0.001,0.771,0.6,1.402,1.355,1.469l0.228,4.926
			c0,0.336,0.132,0.649,0.368,0.894c0.24,0.233,0.553,0.368,0.889,0.368h0.006c0.336,0,0.652-0.135,0.889-0.37
			c0.238-0.241,0.371-0.56,0.367-0.88l0.228-4.932c0.79-0.027,1.426-0.682,1.426-1.479c-0.004-0.75-0.566-1.363-1.287-1.463
			l0.548-11.938h-0.003c0.535-0.324,0.926-0.951,1.007-1.551c0.147-0.074,0.286-0.172,0.407-0.291
			c0.317-0.316,0.492-0.738,0.489-1.188C29.877,119.484,29.584,118.977,29.142,118.676"/>
	</g>
</g>
<g>
	<path fill="#FFFFFF" d="M10.546,23.316H8.817c-0.204,0-0.379-0.008-0.429-0.238c-0.066-0.301,0.218-0.361,0.218-0.361
		c-0.025,0.018-0.095,0.15-0.039,0.288c0.05,0.123,0.152,0.106,0.323,0.106l1.934-0.002C10.825,23.296,10.546,23.316,10.546,23.316"
		/>
	<path fill="#FFFFFF" d="M10.08,30.829H9.239c-0.144-0.002-0.272-0.028-0.325-0.187c-0.063-0.189,0.148-0.234,0.148-0.234
		c-0.017,0.012-0.043,0.072-0.005,0.169c0.036,0.089,0.114,0.083,0.234,0.084l0.985,0.005C10.277,30.829,10.08,30.829,10.08,30.829"
		/>
	<path fill="#FFFFFF" d="M10.8,23.494l-2.333,0.004c-0.222,0-0.421-0.189-0.422-0.477c0-0.275,0.203-0.477,0.42-0.477l2.334-0.002
		c0.217,0,0.42,0.209,0.421,0.473C11.22,23.281,11.017,23.494,10.8,23.494 M10.233,24.076l-1.196,0.002
		c-0.204,0.001-0.388-0.098-0.505-0.247l2.202-0.005C10.619,23.979,10.436,24.076,10.233,24.076 M9.396,24.443
		c0.256,0.01,0.585,0.008,0.93-0.037l-0.246,5.468l-0.586,0.001L9.396,24.443z M8.923,24.404c0,0,0.085,0.014,0.226,0.022
		l0.203,5.446H9.195L8.923,24.404z M10.682,30.617c0,0.221-0.183,0.412-0.409,0.412l-1.259,0.002c-0.228,0-0.413-0.186-0.413-0.41
		c0-0.223,0.183-0.412,0.411-0.412h1.258C10.499,30.209,10.682,30.393,10.682,30.617 M9.913,33.596c0,0.15-0.108,0.271-0.267,0.271
		c-0.147,0.002-0.268-0.121-0.268-0.27l-0.11-2.23h0.14l0.08,2.154c0,0.164,0.076,0.197,0.076,0.197l-0.043-2.354l0.492-0.001
		L9.913,33.596z M7.843,21.425c0-0.295,0.12-0.539,0.247-0.797c0.154-0.313,0.326-0.664,0.245-1.104
		c0.162,0.062,0.367,0.172,0.546,0.351c-0.114,0.138-0.238,0.271-0.306,0.354c-0.477,0.565-0.66,1.238-0.149,1.992H8.353
		C8.347,22.218,7.846,22.038,7.843,21.425 M9.526,18.932c0.425,0.344,0.949,0.992,0.951,1.736c0,0.673-0.576,1.441-0.713,1.542
		c-0.112-0.149-0.25-0.433-0.252-0.752c-0.001-0.554,0.27-0.879,0.27-0.879s-0.4,0.258-0.459,0.771
		c-0.028,0.25,0.026,0.515,0.196,0.86H9.276c-0.065-0.104-0.534-0.688-0.143-1.351c0.065-0.108,0.359-0.533,0.396-0.619
		c0.044-0.105,0.041-0.203,0.041-0.203c-0.049,0.079-0.133,0.174-0.133,0.174c-0.084,0.092-0.372,0.391-0.462,0.5
		c-0.561,0.68-0.015,1.438,0.011,1.499H8.758c-0.249-0.286-0.332-0.563-0.308-0.981C8.507,20.289,9.639,20.172,9.526,18.932
		 M11.091,19.729c-0.114,0.707,0.097,1.287,0.131,1.373c0.201,0.715-0.341,1.047-0.46,1.111l-0.017-0.006l-0.542,0.002
		c0.339-0.443,0.611-1.023,0.611-1.541c0-0.158-0.018-0.307-0.048-0.45l-0.044-0.151C10.857,19.908,10.986,19.797,11.091,19.729
		 M11.187,22.336c0.288-0.259,0.549-0.707,0.368-1.338l-0.007-0.021c-0.002-0.006-0.287-0.709-0.041-1.494l0.083-0.26l-0.269,0.035
		c-0.039,0.004-0.356,0.055-0.741,0.442c-0.321-0.649-0.933-1.132-1.569-1.45c0.234,0.742,0.264,1.016,0.073,1.333
		C8.65,19.18,8.122,19.102,8.098,19.1l-0.306-0.045l0.124,0.283c0.196,0.454,0.042,0.768-0.138,1.135
		c-0.132,0.27-0.282,0.573-0.282,0.951c0,0.493,0.251,0.809,0.489,0.982c-0.167,0.15-0.273,0.371-0.273,0.613
		c0,0.312,0.16,0.582,0.4,0.717c0.079,0.242,0.249,0.443,0.472,0.562l0.277,5.591c-0.339,0.071-0.593,0.375-0.593,0.73
		c0,0.385,0.292,0.701,0.665,0.74l0.112,2.24c0,0.332,0.269,0.602,0.602,0.6c0.346,0,0.598-0.268,0.603-0.594l0.1-2.248
		c0.378-0.041,0.669-0.365,0.668-0.742c0-0.362-0.259-0.664-0.602-0.73l0.249-5.576c0.235-0.117,0.415-0.326,0.494-0.58
		c0.242-0.143,0.397-0.424,0.397-0.713C11.555,22.744,11.409,22.482,11.187,22.336"/>
	<path fill="#FFFFFF" d="M24.504,23.316h-1.729c-0.203,0-0.378-0.008-0.428-0.238c-0.066-0.301,0.219-0.361,0.219-0.361
		c-0.025,0.018-0.095,0.15-0.039,0.288c0.05,0.123,0.151,0.106,0.322,0.106l1.934-0.002C24.783,23.296,24.504,23.316,24.504,23.316"
		/>
	<path fill="#FFFFFF" d="M24.037,30.829h-0.841c-0.143-0.002-0.272-0.028-0.324-0.187c-0.063-0.189,0.147-0.234,0.147-0.234
		c-0.016,0.012-0.044,0.072-0.004,0.169c0.036,0.089,0.114,0.083,0.234,0.084l0.984,0.005
		C24.234,30.829,24.037,30.829,24.037,30.829"/>
	<path fill="#FFFFFF" d="M24.758,23.494l-2.333,0.004c-0.221,0-0.42-0.189-0.421-0.477c0-0.275,0.202-0.477,0.42-0.477l2.333-0.002
		c0.217,0,0.422,0.209,0.423,0.473C25.18,23.281,24.975,23.494,24.758,23.494 M24.191,24.076l-1.196,0.002
		c-0.204,0.001-0.387-0.098-0.503-0.247l2.202-0.005C24.577,23.979,24.395,24.076,24.191,24.076 M23.354,24.443
		c0.254,0.01,0.586,0.008,0.929-0.037l-0.246,5.468l-0.585,0.001L23.354,24.443z M22.881,24.404c0,0,0.085,0.014,0.227,0.022
		l0.202,5.446h-0.157L22.881,24.404z M24.64,30.617c0,0.221-0.183,0.412-0.409,0.412l-1.259,0.002c-0.228,0-0.412-0.186-0.412-0.41
		c0-0.223,0.183-0.412,0.411-0.412h1.259C24.457,30.209,24.64,30.393,24.64,30.617 M23.872,33.596c0,0.15-0.11,0.271-0.267,0.271
		c-0.146,0.002-0.268-0.121-0.268-0.27l-0.11-2.23h0.139l0.08,2.154c0,0.164,0.077,0.197,0.077,0.197l-0.042-2.354l0.492-0.001
		L23.872,33.596z M21.802,21.425c0-0.295,0.12-0.539,0.246-0.797c0.154-0.313,0.326-0.664,0.244-1.104
		c0.162,0.062,0.367,0.172,0.544,0.351c-0.112,0.138-0.236,0.271-0.305,0.354c-0.476,0.565-0.659,1.238-0.149,1.992H22.31
		C22.306,22.218,21.802,22.038,21.802,21.425 M23.484,18.932c0.426,0.344,0.952,0.992,0.952,1.736c0,0.673-0.574,1.441-0.714,1.542
		c-0.112-0.149-0.25-0.433-0.251-0.752c0-0.554,0.271-0.879,0.271-0.879s-0.401,0.258-0.46,0.771
		c-0.028,0.25,0.026,0.515,0.197,0.86h-0.244c-0.065-0.104-0.534-0.688-0.143-1.351c0.065-0.108,0.359-0.533,0.395-0.619
		c0.047-0.105,0.042-0.203,0.042-0.203c-0.048,0.079-0.133,0.174-0.133,0.174c-0.084,0.092-0.372,0.391-0.462,0.5
		c-0.561,0.68-0.015,1.438,0.012,1.499h-0.228c-0.25-0.286-0.334-0.563-0.308-0.981C22.465,20.289,23.597,20.172,23.484,18.932
		 M25.05,19.729c-0.116,0.707,0.095,1.287,0.129,1.373c0.199,0.715-0.341,1.047-0.46,1.111l-0.016-0.006l-0.543,0.002
		c0.339-0.443,0.61-1.023,0.61-1.541c-0.001-0.158-0.016-0.307-0.047-0.45l-0.044-0.151C24.815,19.908,24.944,19.797,25.05,19.729
		 M25.144,22.336c0.289-0.259,0.551-0.707,0.37-1.338l-0.008-0.021c-0.003-0.006-0.288-0.709-0.041-1.494l0.083-0.26l-0.271,0.035
		c-0.04,0.004-0.356,0.055-0.741,0.442c-0.32-0.649-0.931-1.132-1.567-1.45c0.233,0.742,0.265,1.016,0.072,1.333
		c-0.435-0.403-0.964-0.481-0.987-0.483l-0.306-0.045l0.124,0.283c0.196,0.454,0.042,0.768-0.138,1.135
		c-0.132,0.27-0.282,0.573-0.282,0.951c0.001,0.494,0.252,0.809,0.489,0.982c-0.167,0.15-0.273,0.371-0.272,0.613
		c0,0.312,0.159,0.582,0.4,0.717c0.078,0.242,0.249,0.443,0.471,0.562l0.277,5.591c-0.339,0.071-0.593,0.375-0.592,0.73
		c0,0.385,0.292,0.701,0.664,0.74l0.113,2.24c0,0.332,0.27,0.602,0.602,0.6c0.347,0,0.599-0.268,0.602-0.594l0.101-2.248
		c0.377-0.041,0.668-0.365,0.667-0.742c0-0.362-0.259-0.664-0.601-0.73l0.248-5.576c0.234-0.117,0.416-0.326,0.495-0.58
		c0.242-0.143,0.397-0.424,0.397-0.713C25.513,22.744,25.368,22.482,25.144,22.336"/>
	<path fill="#FFFFFF" d="M18.272,24.588l-3.083,0.002c-0.402,0.002-0.728-0.324-0.729-0.727c0-0.4,0.326-0.728,0.727-0.728
		l3.083-0.006c0.055,0,0.107,0.009,0.158,0.019l0.003,0.008c0,0,0.004-0.002,0.008-0.004c0.32,0.076,0.559,0.365,0.56,0.707
		C19,24.26,18.674,24.588,18.272,24.588 M17.653,25.375l-1.879,0.001c-0.298,0-0.558-0.181-0.668-0.44
		c0.028,0.002,0.056,0.004,0.083,0.004l3.084-0.004c0.036,0,0.069,0,0.104-0.004C18.261,25.188,17.977,25.373,17.653,25.375
		 M17.425,33.459l-0.895,0.002l-0.096-7.736l1.221-0.002c0.043,0,0.083-0.002,0.127-0.008L17.425,33.459z M18.254,34.407
		c0,0.334-0.27,0.604-0.603,0.606l-1.792,0.002c-0.333,0-0.603-0.271-0.604-0.604c0-0.332,0.27-0.603,0.602-0.603l1.792-0.004
		C17.981,33.807,18.253,34.076,18.254,34.407 M17.191,38.516c0.001,0.252-0.205,0.459-0.458,0.459c-0.254,0-0.46-0.205-0.462-0.467
		l-0.144-3.145h0.284l0.119,3.07c0,0.228,0.104,0.271,0.104,0.271l-0.053-3.346l0.757-0.002L17.191,38.516z M16.023,25.725
		l0.324,7.736h-0.306l-0.355-7.738c0.029,0,0.06,0.004,0.089,0.004L16.023,25.725z M14.185,21.667c0-0.424,0.169-0.767,0.348-1.133
		c0.233-0.478,0.473-0.966,0.309-1.604c0.253,0.08,0.625,0.25,0.934,0.573c-0.075,0.095-0.16,0.187-0.249,0.284
		c-0.068,0.074-0.138,0.148-0.212,0.234c-0.105,0.104-1.238,1.299-0.278,2.779c-0.04,0.004-0.079,0.014-0.118,0.023
		C14.808,22.779,14.185,22.49,14.185,21.667 M16.45,19.018c0.106-0.297,0.089-0.639,0.044-0.908
		c0.532,0.412,1.455,1.283,1.462,2.392c0.01,1.125-0.723,1.996-1,2.283l-0.049,0.001c-0.152-0.209-0.34-0.596-0.34-1.034
		c-0.002-0.769,0.373-1.22,0.373-1.22s-0.555,0.359-0.636,1.068c-0.04,0.348,0.036,0.711,0.268,1.186h-0.337
		c-0.104-0.16-0.729-0.96-0.195-1.862c0.09-0.151,0.496-0.739,0.548-0.858c0.064-0.147,0.056-0.285,0.056-0.285
		c-0.066,0.111-0.184,0.244-0.184,0.244c-0.117,0.127-0.515,0.541-0.641,0.692c-0.761,0.923-0.049,1.949,0.012,2.07l-0.377,0.002
		c-1.058-1.382,0.058-2.474,0.107-2.521l0.012-0.013c0.072-0.082,0.141-0.157,0.208-0.229C16.052,19.73,16.285,19.477,16.45,19.018
		 M18.846,19.184c-0.216,1.041,0.107,1.906,0.152,2.019c0.268,0.948-0.37,1.438-0.618,1.588c-0.037-0.005-0.072-0.006-0.109-0.006
		h-0.845c0.365-0.442,0.888-1.257,0.881-2.287c-0.001-0.265-0.047-0.517-0.124-0.753C18.438,19.443,18.674,19.275,18.846,19.184
		 M18.791,22.917c0.355-0.3,0.809-0.884,0.541-1.821l-0.006-0.02c-0.005-0.01-0.41-1.014-0.059-2.118l0.082-0.259l-0.269,0.033
		c-0.023,0.004-0.489,0.066-1.042,0.649c-0.532-1.108-1.672-1.797-1.736-1.832l-0.418-0.248l0.167,0.458
		c0.067,0.186,0.212,0.751,0.071,1.141c-0.042,0.117-0.09,0.221-0.143,0.312c-0.595-0.592-1.352-0.697-1.385-0.703l-0.307-0.042
		l0.124,0.284c0.285,0.654,0.064,1.105-0.19,1.627c-0.189,0.385-0.385,0.783-0.383,1.287c0,0.693,0.369,1.126,0.696,1.346
		c-0.256,0.196-0.421,0.506-0.42,0.852c0.001,0.425,0.247,0.789,0.602,0.966c0.061,0.358,0.298,0.655,0.619,0.801l0.36,7.849
		c-0.446,0.078-0.786,0.469-0.786,0.937c0.001,0.498,0.385,0.905,0.873,0.948l0.144,3.154c0,0.446,0.364,0.81,0.81,0.81
		c0.446,0,0.809-0.364,0.808-0.802l0.146-3.162c0.509-0.021,0.916-0.439,0.916-0.953c-0.002-0.482-0.362-0.879-0.829-0.942
		l0.361-7.848c0.337-0.15,0.585-0.454,0.639-0.806c0.343-0.183,0.575-0.541,0.573-0.955C19.347,23.454,19.122,23.102,18.791,22.917"
		/>
	<path fill="#FFFFFF" d="M15.02,23.874c-0.09-0.222,0.024-0.435,0.062-0.465c0,0-0.434,0.077-0.329,0.562
		c0.081,0.372,0.338,0.411,0.667,0.41l2.791-0.004c0,0,0.327,0.031,0.451-0.279l-3.122,0.006
		C15.265,24.104,15.1,24.076,15.02,23.874"/>
	<path fill="#FFFFFF" d="M15.713,34.43c-0.069-0.175,0.019-0.342,0.049-0.365c0,0-0.342,0.061-0.26,0.441
		c0.063,0.293,0.267,0.324,0.527,0.323l1.522-0.003c0,0,0.257,0.025,0.354-0.219l-1.781,0.004
		C15.907,34.611,15.777,34.588,15.713,34.43"/>
	<path fill="#FFFFFF" d="M29.729,26.451c-2.034,4.961-5.927,11.75-12.947,16.029C9.751,38.221,5.838,31.439,3.793,26.482
		c-1.884-4.562-2.573-8.438-2.746-9.578c0.84-0.471,1.677-0.699,2.625-0.7h0.007c0.665,0,1.602,0.122,2.139,0.278l0.326,0.095
		c0.273,0.079,0.557,0.163,0.844,0.243v0.002c1.039,0.297,2.219,0.6,3.105,0.6h0.006c0.994-0.003,2.543-0.132,4.285-0.745
		c0.496-0.175,1.087-0.364,1.721-0.446l0.574-0.043c0.011,0,0.022,0,0.033,0l0.886,0.08c0.539,0.092,1.046,0.256,1.472,0.403
		c1.734,0.606,3.282,0.735,4.278,0.735h0.009c0.601-0.002,1.381-0.137,2.459-0.428l0,0c0.45-0.119,0.901-0.254,1.333-0.381
		l0.483-0.142c0.533-0.157,1.51-0.284,2.176-0.285h0.005c0.945,0,1.811,0.229,2.64,0.679C32.287,17.967,31.612,21.861,29.729,26.451
		 M10.436,12.602c-0.217,0.537-0.373,1.11-0.449,1.711c-0.794-0.033-1.85-0.304-2.794-0.572L6.027,13.4
		c-0.59-0.17-1.58-0.301-2.302-0.301H3.716c-1.039,0.002-2.12,0.25-3.037,0.687c-0.042-0.573-0.075-1.222-0.09-1.929L10.436,12.602z
		 M0.612,9.525l10.232,2.24c-0.091,0.155-0.174,0.316-0.251,0.481L0.58,10.908C0.582,10.465,0.594,10,0.612,9.525 M0.966,5.787
		l10.626,4.922c-0.201,0.236-0.392,0.479-0.562,0.74L0.666,8.543C0.725,7.659,0.823,6.734,0.966,5.787 M1.245,4.193
		C1.657,4.282,2.468,4.441,3.517,4.55l8.631,5.584c-0.116,0.105-0.229,0.212-0.337,0.325L1.143,4.749
		C1.177,4.564,1.207,4.38,1.245,4.193 M5.838,4.673c1.11,0,2.155-0.093,3.13-0.276l4.355,4.879c-0.33,0.19-0.641,0.408-0.933,0.65
		L5.2,4.665C5.41,4.67,5.621,4.675,5.838,4.673 M11.396,3.736l2.887,5.076c-0.195,0.073-0.387,0.16-0.573,0.25l-3.673-4.91
		C10.514,4.027,10.967,3.886,11.396,3.736 M15.217,1.893l0.879,6.496c-0.487,0.045-0.956,0.146-1.407,0.289l-2.422-5.267
		C13.476,2.92,14.466,2.375,15.217,1.893 M16.732,0.785c0.216,0.18,0.434,0.352,0.653,0.516l-0.391,7.068
		c-0.082-0.003-0.164-0.012-0.246-0.012H16.74c-0.087,0-0.17,0.009-0.254,0.012l-0.393-7.08C16.375,1.081,16.593,0.904,16.732,0.785
		 M18.241,1.893c1.033,0.668,2.055,1.162,2.93,1.517l-2.419,5.259c-0.447-0.141-0.911-0.238-1.39-0.281L18.241,1.893z M22.042,3.734
		c0.617,0.211,1.101,0.343,1.365,0.406l-3.676,4.914c-0.188-0.094-0.379-0.176-0.576-0.25L22.042,3.734z M24.5,4.363
		c1.077,0.186,2.196,0.287,3.338,0.285c0.139,0,0.269-0.006,0.402-0.01l-7.195,5.268c-0.29-0.237-0.597-0.452-0.924-0.639
		L24.5,4.363z M29.908,4.54c1.085-0.11,1.901-0.281,2.312-0.381c0.04,0.187,0.07,0.372,0.105,0.558l-10.692,5.725
		c-0.11-0.113-0.223-0.223-0.34-0.327L29.908,4.54z M32.505,5.759c0.149,0.97,0.249,1.913,0.312,2.815L22.46,11.477
		c-0.181-0.277-0.384-0.537-0.602-0.785L32.505,5.759z M32.902,10.921l-10.008,1.337c-0.077-0.16-0.159-0.318-0.248-0.472
		l10.223-2.239C32.888,10.021,32.902,10.482,32.902,10.921 M25.785,14.175l-0.076-0.28c-0.621,0.166-1.507,0.383-2.204,0.402
		c-0.078-0.592-0.234-1.156-0.453-1.689l9.844-0.742c-0.015,0.679-0.044,1.3-0.083,1.855c-0.897-0.42-1.949-0.654-2.955-0.654
		h-0.005c-0.635,0-1.683,0.115-2.337,0.306l-0.449,0.132c-0.438,0.13-0.899,0.268-1.357,0.389L25.785,14.175z M16.771,13.083
		l-0.002,0.044v-0.044c-0.231,0.002-0.463,0.017-0.688,0.047l0,0c-0.684,0.087-1.316,0.29-1.846,0.478
		c-1.427,0.502-2.719,0.664-3.659,0.701c0.426-3.074,3.024-5.361,6.165-5.365h0.008c3.1,0,5.73,2.317,6.167,5.349
		c-0.933-0.039-2.204-0.201-3.608-0.692c-0.419-0.146-0.978-0.326-1.572-0.431l-0.003,0.021l0.002-0.021
		C17.397,13.111,17.082,13.083,16.771,13.083 M10.141,14.902h0.005c0.694,0,1.664-0.069,2.773-0.316
		c0.481-0.107,0.985-0.245,1.51-0.429c0.5-0.177,1.096-0.368,1.725-0.448l0.612-0.041l0.876,0.077
		c0.551,0.095,1.077,0.266,1.473,0.405c0.644,0.226,1.26,0.384,1.833,0.496c0.973,0.188,1.817,0.239,2.443,0.239h0.01
		c0.602,0,1.36-0.132,2.459-0.428c0.462-0.123,0.929-0.26,1.372-0.392l0.447-0.133c0.532-0.154,1.507-0.281,2.174-0.283h0.005
		c1,0,2.044,0.261,2.905,0.705c-0.021,0.233-0.041,0.451-0.062,0.649c-0.894-0.446-1.883-0.683-2.887-0.683h-0.007
		c-0.641,0.001-1.69,0.115-2.339,0.307l-0.48,0.141c-0.427,0.127-0.877,0.262-1.323,0.379c-0.657,0.177-1.607,0.395-2.324,0.408
		c-0.948,0-2.421-0.123-4.08-0.703c-0.207-0.072-0.447-0.151-0.705-0.227c-0.273-0.08-0.567-0.152-0.869-0.205
		c-0.335-0.057-0.65-0.084-0.965-0.084c-0.231,0-0.455,0.016-0.686,0.047l0,0c-0.361,0.047-0.706,0.124-1.032,0.215
		c-0.29,0.082-0.565,0.172-0.816,0.262c-1.665,0.587-3.144,0.709-4.091,0.712h-0.005c-0.807,0-1.94-0.294-2.945-0.579l-1.166-0.338
		c-0.59-0.172-1.576-0.301-2.298-0.301H3.668c-1.002,0.002-1.988,0.235-2.877,0.681c-0.02-0.19-0.042-0.397-0.061-0.62
		c0.878-0.465,1.954-0.732,2.988-0.732h0.006c0.666,0,1.604,0.121,2.141,0.277L7.032,14.3l0.08-0.28l-0.08,0.28
		C8.128,14.615,9.263,14.902,10.141,14.902 M25.741,16.697l-0.077-0.281c-1.027,0.277-1.761,0.404-2.309,0.407h-0.008
		c-0.951,0-2.429-0.122-4.086-0.704c-0.451-0.156-0.99-0.33-1.573-0.428c-0.593-0.103-1.104-0.112-1.654-0.041
		c-0.689,0.088-1.32,0.291-1.845,0.478c-1.664,0.585-3.143,0.708-4.091,0.711h-0.006c-0.814,0-1.945-0.292-2.943-0.579l-0.081,0.282
		l0.079-0.282c-0.285-0.08-0.567-0.164-0.839-0.242L5.98,15.921c-0.591-0.172-1.579-0.3-2.301-0.3H3.671
		c-0.979,0.001-1.853,0.215-2.719,0.667c-0.023-0.146-0.053-0.356-0.087-0.622c0.857-0.468,1.82-0.725,2.804-0.727h0.013
		c0.664,0,1.6,0.123,2.135,0.277l1.167,0.34l0.082-0.281l-0.081,0.281c1.096,0.312,2.229,0.602,3.105,0.602h0.007
		c0.993-0.002,2.541-0.133,4.283-0.747c0.501-0.175,1.098-0.367,1.724-0.446l0.571-0.042c0.011,0,0.023,0,0.035,0L17.593,15
		c0.542,0.094,1.049,0.257,1.473,0.404c1.735,0.606,3.28,0.736,4.272,0.736h0.015c0.599,0,1.357-0.131,2.461-0.426
		c0.451-0.122,0.904-0.256,1.337-0.384l0.479-0.142c0.527-0.154,1.502-0.281,2.175-0.282h0.007c0.985,0,1.955,0.253,2.815,0.723
		c-0.031,0.253-0.06,0.454-0.082,0.599c-0.86-0.431-1.757-0.642-2.733-0.642h-0.006c-0.635,0-1.684,0.116-2.339,0.306l-0.485,0.144
		c-0.426,0.127-0.874,0.259-1.319,0.379L25.741,16.697z M33.449,9.421l-0.056-1.009c-0.067-0.934-0.179-1.911-0.336-2.909
		l-0.113-0.68c-0.065-0.36-0.135-0.722-0.215-1.085l-0.066-0.305l-0.299,0.088c-0.009,0-0.493,0.14-1.306,0.274l-1.974,0.226
		c-0.39,0.024-0.807,0.041-1.246,0.041c-1.148,0.002-2.272-0.103-3.355-0.297l-0.692-0.139c-0.012-0.003-0.025-0.004-0.038-0.006
		c-0.014-0.004-0.57-0.122-1.415-0.408l-0.92-0.343c-0.918-0.368-2.008-0.897-3.09-1.622l-0.903-0.657
		c-0.168-0.134-0.337-0.271-0.501-0.417L16.722,0L16.53,0.184c-0.006,0.004-0.168,0.157-0.475,0.398l-0.924,0.666
		c-0.754,0.499-1.803,1.1-3.11,1.628l-0.919,0.343c-0.444,0.152-0.911,0.297-1.403,0.422C9.686,3.643,9.673,3.645,9.661,3.648
		L8.863,3.822C7.923,3.996,6.911,4.088,5.839,4.09c-0.524,0-1.025-0.02-1.493-0.054L2.369,3.807
		C1.587,3.682,1.105,3.561,1.095,3.559L0.803,3.484L0.737,3.779C0.675,4.07,0.621,4.361,0.567,4.65L0.415,5.532
		c-0.152,0.979-0.26,1.937-0.324,2.851L0.033,9.398C0.013,9.893,0.002,10.37,0,10.831l0.007,0.983
		c0.056,2.764,0.384,4.672,0.412,4.824c0.03,0.236,0.615,4.688,2.828,10.055c2.081,5.039,6.06,11.938,13.227,16.281l0.311,0.188
		l0.31-0.188c7.155-4.365,11.116-11.271,13.182-16.317c2.2-5.372,2.774-9.825,2.802-10.06c0.026-0.152,0.347-2.037,0.401-4.774
		l0.005-0.978C33.482,10.386,33.471,9.913,33.449,9.421"/>
	<g>
		<path fill="#FFCC00" d="M39.666,5.43c0-0.744-0.176-1.093-0.744-1.093h-1.006c-0.131,0-0.176-0.044-0.176-0.198V3.635
			c0-0.13,0.045-0.174,0.219-0.174c0.22,0,1.269,0.064,3.37,0.064c1.837,0,2.887-0.064,3.15-0.064c0.131,0,0.174,0.044,0.174,0.154
			v0.546c0,0.131-0.043,0.175-0.174,0.175H43.56c-0.656,0-1.049,0.393-1.072,0.852c-0.022,0.264-0.065,1.576-0.065,2.845v2.714
			c0,1.093,0.021,2.646,0.065,3.347c0.066,1.007,0.241,2.013,0.766,2.714c0.744,1.004,1.926,1.354,2.975,1.354
			c1.005,0,2.231-0.396,2.931-1.049c0.833-0.832,1.27-2.102,1.27-3.698V9.477c0-1.752-0.176-3.678-0.241-4.18
			c-0.066-0.57-0.416-0.961-0.897-0.961h-0.789c-0.13,0-0.174-0.066-0.174-0.154V3.635c0-0.13,0.044-0.174,0.174-0.174
			c0.22,0,1.226,0.064,2.67,0.064c1.356,0,2.056-0.064,2.231-0.064c0.197,0,0.218,0.064,0.218,0.174v0.504
			c0,0.131-0.021,0.198-0.131,0.198h-0.786c-0.789,0-0.876,0.611-0.921,0.853c-0.042,0.263-0.042,3.324-0.042,3.61
			c0,0.304-0.044,4.112-0.13,4.987c-0.132,1.792-0.658,3.148-1.839,4.199c-0.918,0.832-2.319,1.355-3.981,1.355
			c-1.05,0-2.318-0.173-3.15-0.523c-1.269-0.525-2.144-1.532-2.582-2.932c-0.306-0.964-0.393-2.408-0.393-5.275L39.666,5.43
			L39.666,5.43z"/>
		<path fill="#FFCC00" d="M54.236,14.136c0.086,0,0.131,0.046,0.131,0.175c0.044,0.7,0.219,1.531,0.832,2.496
			c0.656,1.047,1.794,1.573,2.888,1.573c1.181,0,2.843-0.744,2.843-2.56c0-2.012-0.917-2.67-3.237-3.543
			c-0.699-0.262-2.144-0.877-3.193-1.838c-0.744-0.703-1.094-1.795-1.094-3.129c0-1.227,0.481-2.231,1.532-3.063
			c0.875-0.742,1.837-1.049,3.106-1.049c1.444,0,2.319,0.349,2.756,0.524c0.218,0.088,0.35,0.043,0.459-0.065l0.284-0.285
			c0.088-0.087,0.175-0.13,0.307-0.13c0.131,0,0.174,0.13,0.174,0.349c0,0.351,0.351,3.412,0.351,3.634
			c0,0.086-0.044,0.129-0.131,0.152l-0.35,0.109c-0.088,0.021-0.176,0-0.219-0.133c-0.219-0.611-0.568-1.486-1.356-2.317
			c-0.569-0.612-1.269-0.919-2.275-0.919c-1.751,0-2.451,1.4-2.451,2.208c0,0.745,0.088,1.401,0.612,1.969
			c0.57,0.57,1.794,1.095,2.67,1.356c1.268,0.395,2.318,0.832,3.149,1.705c0.7,0.746,1.094,1.664,1.094,3.131
			c0,2.668-1.75,4.854-4.637,4.854c-1.794,0-2.845-0.393-3.719-1.049c-0.262-0.175-0.394-0.263-0.525-0.263
			c-0.131,0-0.219,0.175-0.35,0.394c-0.131,0.22-0.217,0.265-0.394,0.265c-0.174,0-0.263-0.133-0.263-0.352
			c0.044-0.264,0.35-3.809,0.394-4.068c0.022-0.133,0.045-0.175,0.131-0.175L54.236,14.136z"/>
		<path fill="#FFCC00" d="M78.52,15.448c0.065,0.065,0.085,0.13,0.042,0.218c-1.312,1.883-3.412,3.676-6.518,3.676
			c-2.8,0-4.375-0.832-5.732-2.057c-1.619-1.442-2.361-3.98-2.361-5.905c0-2.146,0.699-4.202,2.23-5.864
			c1.181-1.268,3.062-2.317,5.688-2.317c2.013,0,3.631,0.612,4.419,1.05c0.305,0.175,0.394,0.175,0.438,0l0.174-0.57
			c0.044-0.129,0.087-0.129,0.349-0.129c0.263,0,0.308,0.042,0.308,0.35c0,0.396,0.437,3.894,0.524,4.549
			c0.022,0.133,0,0.199-0.087,0.221L77.578,8.8c-0.109,0.042-0.175-0.045-0.24-0.22c-0.264-0.788-0.788-1.881-1.706-2.844
			c-0.963-0.92-2.101-1.619-3.808-1.619c-3.499,0-4.943,3.15-4.943,6.3c0,1.354,0.394,3.937,2.013,5.688
			c1.444,1.53,2.712,1.707,3.763,1.707c2.405,0,4.309-1.203,5.229-2.539c0.108-0.152,0.196-0.217,0.263-0.152L78.52,15.448z"/>
		<path fill="#FFFFFF" d="M85.345,18.883c-1.487-0.59-2.252-1.553-2.603-2.932c-0.263-0.983-0.35-2.45-0.35-5.315V5.43
			c0-0.765-0.153-1.115-0.832-1.115h-1.028c-0.13,0-0.153-0.045-0.153-0.196V3.635c0-0.13,0.023-0.174,0.197-0.174
			c0.219,0,1.292,0.064,2.997,0.064c1.707,0,2.757-0.064,2.997-0.064c0.175,0,0.197,0.044,0.197,0.131v0.57
			c0,0.107-0.022,0.152-0.175,0.152H85.5c-0.636,0-1.007,0.414-1.051,0.896c-0.022,0.198-0.043,1.729-0.043,2.847V9.5
			c0,1.158,0.087,3.938,0.109,4.637c0.021,1.006,0.196,2.035,0.7,2.778c0.809,1.183,2.209,1.576,3.478,1.576
			c1.248,0,2.516-0.417,3.281-1.204c0.854-0.919,1.139-2.23,1.139-3.85V8.757c0-1.664-0.043-2.933-0.11-3.478
			c-0.065-0.57-0.415-0.965-0.984-0.965h-0.962c-0.131,0-0.154-0.064-0.154-0.174V3.616c0-0.11,0.022-0.154,0.154-0.154
			c0.219,0,1.224,0.065,2.69,0.065c1.509,0,2.209-0.065,2.407-0.065c0.196,0,0.218,0.088,0.218,0.154v0.479
			c0,0.131-0.022,0.219-0.132,0.219h-0.896c-0.81,0-0.875,0.613-0.94,0.875c-0.045,0.219-0.045,3.324-0.045,3.631
			c0,0.306-0.043,4.136-0.109,4.988c-0.13,1.793-0.611,3.172-1.836,4.221c-0.875,0.811-2.209,1.312-4.114,1.312
			C87.162,19.342,86.067,19.189,85.345,18.883"/>
		<path fill="#FFFFFF" d="M104.139,17.833c0,0.351,0.195,0.46,0.479,0.46h0.7c0.197,0,0.24,0.064,0.24,0.196v0.351
			c0,0.152-0.043,0.241-0.177,0.241c-0.151,0-0.827-0.065-2.075-0.065c-1.115,0-1.815,0.065-1.97,0.065
			c-0.133,0-0.177-0.065-0.177-0.241v-0.351c0-0.154,0.066-0.196,0.283-0.196h0.636c0.241,0,0.416-0.109,0.438-0.503
			c0.021-0.569,0.043-1.271,0.043-1.837v-2.889c0-0.875,0-1.508-0.636-1.967c-0.524-0.395-1.05-0.395-1.596-0.395
			c-0.351,0-1.116,0.152-1.772,0.854c-0.437,0.481-0.502,1.07-0.502,1.485v4.528c0,0.592,0.066,0.724,0.524,0.724h0.546
			c0.176,0,0.219,0.065,0.219,0.217v0.373c0,0.132-0.043,0.198-0.154,0.198c-0.152,0-0.743-0.066-1.903-0.066
			c-1.115,0-1.816,0.066-1.946,0.066c-0.11,0-0.154-0.066-0.154-0.198V18.49c0-0.131,0.044-0.196,0.218-0.196h0.635
			c0.284,0,0.438-0.067,0.438-0.438v-5.119c0-0.656-0.349-1.027-0.896-1.291l-0.176-0.088c-0.152-0.063-0.174-0.129-0.174-0.195
			v-0.11c0-0.108,0.088-0.174,0.197-0.219l1.881-1.049c0.175-0.087,0.306-0.153,0.394-0.153c0.109,0,0.153,0.087,0.174,0.264
			l0.154,1.334h0.043c0.635-0.789,1.903-1.599,2.997-1.599c0.654,0,1.334,0.131,1.859,0.481c0.654,0.438,1.202,1.531,1.202,2.078
			v5.644H104.139z"/>
		<path fill="#FFFFFF" d="M107.771,12.646c0-0.742-0.133-1.137-1.229-1.311c-0.15-0.021-0.195-0.064-0.195-0.154v-0.197
			c0-0.066,0.045-0.108,0.152-0.152c0.7-0.262,1.529-0.613,2.361-1.07c0.178-0.088,0.283-0.133,0.416-0.133
			c0.109,0,0.131,0.109,0.109,0.264c-0.043,0.371-0.043,1.75-0.043,3.564v2.385c0,0.854,0,1.641,0.021,1.879
			c0.042,0.418,0.105,0.571,0.349,0.571h1.009c0.176,0,0.217,0.065,0.217,0.196v0.373c0,0.154-0.041,0.219-0.195,0.219
			c-0.176,0-1.182-0.064-2.102-0.064c-1.27,0-2.121,0.064-2.359,0.064c-0.11,0-0.176-0.045-0.176-0.176v-0.438
			c0-0.131,0.063-0.175,0.218-0.175h1.071c0.242,0,0.328-0.088,0.353-0.439c0.021-0.656,0.021-1.332,0.021-1.988v-3.217H107.771z
			 M106.786,5.977c0-0.547,0.461-1.139,1.334-1.139c0.767,0,1.139,0.59,1.139,1.072c0,0.568-0.396,1.204-1.271,1.204
			C107.507,7.114,106.786,6.677,106.786,5.977"/>
		<path fill="#FFFFFF" d="M115.559,17.002h0.064c0.352-0.854,1.881-4.595,2.102-5.447c0.152-0.591,0-0.94-0.393-0.94h-0.439
			c-0.063,0-0.086-0.11-0.086-0.218v-0.395c0-0.132,0.043-0.176,0.131-0.176c0.307,0,0.787,0.064,1.75,0.064
			c0.854,0,1.379-0.064,1.574-0.064c0.176,0,0.196,0.021,0.196,0.195v0.373c0,0.152,0,0.219-0.108,0.219h-0.416
			c-0.262,0-0.479,0.043-0.679,0.242c-0.327,0.305-1.422,2.69-1.751,3.5c-0.262,0.654-1.881,4.33-1.968,4.483
			c-0.175,0.306-0.283,0.502-0.524,0.502c-0.217,0-0.35-0.196-0.46-0.459c-0.043-0.11-1.641-4.266-1.706-4.44
			c-0.063-0.174-0.962-2.67-1.115-3.02c-0.283-0.634-0.504-0.809-0.896-0.809h-0.438c-0.107,0-0.133-0.088-0.133-0.219v-0.393
			c0-0.154,0.047-0.176,0.242-0.176c0.24,0,0.612,0.064,1.837,0.064c1.16,0,1.729-0.064,1.97-0.064c0.174,0,0.219,0.043,0.219,0.176
			v0.393c0,0.131-0.021,0.219-0.151,0.219h-0.438c-0.221,0-0.395,0.132-0.395,0.414c0,0.395,0.57,2.211,0.7,2.582
			C114.378,14.025,115.318,16.542,115.559,17.002"/>
		<path fill="#FFFFFF" d="M121.488,13.195c-0.045,0.197-0.066,0.548-0.066,1.049c0,2.146,1.357,3.764,3.107,3.764
			c1.334,0,2.272-0.766,2.646-1.486c0.042-0.088,0.132-0.131,0.195-0.11l0.282,0.153c0.068,0.021,0.109,0.086,0,0.328
			c-0.393,0.875-1.53,2.383-3.479,2.383c-1.246,0-2.624-0.371-3.433-1.553c-0.767-1.115-0.964-1.924-0.964-3.455
			c0-0.854,0.22-2.318,1.377-3.478c0.941-0.964,2.035-1.16,3.13-1.16c2.516,0,3.216,2.364,3.216,3.218
			c0,0.303-0.264,0.348-0.611,0.348h-5.402l0,0H121.488z M124.966,12.54c0.415,0,0.591-0.108,0.591-0.308
			c0-0.502-0.263-1.945-1.684-1.945c-0.965,0-1.882,0.632-2.298,2.253H124.966z"/>
		<path fill="#FFFFFF" d="M129.551,13.195c0-1.116-0.174-1.334-0.787-1.662l-0.418-0.219c-0.129-0.043-0.174-0.065-0.174-0.152
			v-0.133c0-0.086,0.045-0.129,0.174-0.195l2.168-1.116c0.131-0.065,0.219-0.087,0.305-0.087c0.134,0,0.154,0.133,0.154,0.264
			l0.108,1.508h0.088c0.656-1.006,1.685-1.902,2.626-1.902c0.745,0,1.114,0.458,1.114,0.963c0,0.635-0.524,1.071-0.919,1.071
			c-0.24,0-0.461-0.087-0.633-0.177c-0.176-0.107-0.438-0.174-0.725-0.174c-0.351,0-0.92,0.219-1.29,0.918
			c-0.133,0.241-0.22,0.635-0.22,0.703v4.592c0,0.678,0.154,0.897,0.611,0.897h1.027c0.133,0,0.153,0.065,0.153,0.196v0.394
			c0,0.134-0.021,0.198-0.108,0.198c-0.131,0-1.139-0.064-2.318-0.064c-1.355,0-2.273,0.064-2.405,0.064
			c-0.087,0-0.131-0.045-0.131-0.219V18.49c0-0.154,0.044-0.196,0.237-0.196h0.854c0.329,0,0.479-0.132,0.479-0.417
			c0.021-0.721,0.021-1.486,0.021-2.625v-2.057H129.551z"/>
		<path fill="#FFFFFF" d="M135.445,18.643c-0.108-0.064-0.108-0.197-0.131-0.306l-0.371-2.079c-0.021-0.109,0.043-0.152,0.131-0.176
			l0.283-0.062c0.088-0.022,0.151,0.021,0.197,0.131l0.547,1.072c0.438,0.809,0.741,1.355,1.901,1.355
			c0.767,0,1.729-0.459,1.729-1.488c0-0.984-0.48-1.553-2.121-2.012c-1.291-0.371-2.58-1.051-2.58-2.78
			c0-1.509,1.421-2.668,3.062-2.668c1.05,0,1.616,0.263,2.013,0.459c0.328,0.153,0.371,0.263,0.394,0.394l0.329,1.531
			c0,0.088-0.045,0.154-0.153,0.197l-0.265,0.086c-0.088,0.023-0.131,0-0.195-0.109l-0.744-1.004
			c-0.262-0.416-0.678-0.854-1.529-0.854c-0.832,0-1.686,0.503-1.686,1.443c0,1.269,1.027,1.511,2.1,1.815
			c1.6,0.459,2.604,1.117,2.627,2.802c-0.021,1.771-1.467,2.885-3.324,2.885C136.585,19.275,135.709,18.84,135.445,18.643"/>
		<path fill="#FFFFFF" d="M143.168,12.646c0-0.74-0.131-1.136-1.225-1.311c-0.152-0.021-0.197-0.064-0.197-0.154v-0.197
			c0-0.066,0.045-0.108,0.154-0.152c0.701-0.262,1.529-0.613,2.363-1.07c0.174-0.088,0.28-0.133,0.412-0.133
			c0.109,0,0.133,0.109,0.109,0.264c-0.042,0.371-0.042,1.75-0.042,3.564v2.385c0,0.854,0,1.641,0.021,1.879
			c0.043,0.418,0.108,0.571,0.35,0.571h1.009c0.174,0,0.216,0.065,0.216,0.196v0.373c0,0.154-0.042,0.219-0.193,0.219
			c-0.174,0-1.185-0.064-2.102-0.064c-1.27,0-2.122,0.064-2.359,0.064c-0.111,0-0.179-0.045-0.179-0.176v-0.438
			c0-0.131,0.065-0.175,0.22-0.175h1.07c0.241,0,0.329-0.088,0.352-0.439c0.021-0.656,0.021-1.332,0.021-1.988L143.168,12.646
			L143.168,12.646z M142.186,5.977c0-0.547,0.459-1.139,1.334-1.139c0.767,0,1.138,0.59,1.138,1.072
			c0,0.568-0.394,1.204-1.271,1.204C142.904,7.114,142.186,6.677,142.186,5.977"/>
		<path fill="#FFFFFF" d="M149.164,16.281c0,1.64,0.743,1.924,1.137,1.924c0.504,0,1.137-0.087,1.443-0.284
			c0.109-0.065,0.197-0.044,0.263,0.042l0.109,0.199c0.063,0.087,0.022,0.175-0.044,0.238c-0.219,0.221-1.114,0.875-2.43,0.875
			c-1.07,0-2.121-1.026-2.121-1.857c0-0.896,0.064-2.822,0.064-3.129v-0.48c0-0.395,0.021-1.859,0.044-2.779h-1.335
			c-0.195,0-0.327-0.086-0.327-0.262s0.132-0.242,0.394-0.394c0.524-0.308,2.212-2.013,2.496-2.756
			c0.062-0.175,0.174-0.218,0.307-0.218c0.175,0,0.219,0.152,0.219,0.326l-0.111,2.168h3.043c0.131,0,0.195,0.109,0.151,0.195
			l-0.218,0.768c-0.023,0.107-0.066,0.172-0.198,0.172h-2.821c-0.043,1.009-0.062,2.057-0.062,3.064L149.164,16.281L149.164,16.281z
			"/>
		<path fill="#FFFFFF" d="M152.883,23.85c0-0.461,0.482-0.854,1.008-0.854c0.416,0,0.81,0.197,1.008,0.24
			c0.15,0.021,0.326,0,0.457-0.129c0.328-0.396,1.443-2.892,1.75-3.743c-0.106-0.548-2.428-7.371-2.604-7.832
			c-0.261-0.548-0.459-0.921-1.027-0.921h-0.57c-0.15,0-0.174-0.063-0.174-0.195V9.979c0-0.086,0.021-0.152,0.174-0.152
			c0.199,0,0.724,0.066,2.017,0.066c1.115,0,1.792-0.066,2.033-0.066c0.174,0,0.194,0.066,0.194,0.152v0.459
			c0,0.109-0.021,0.172-0.131,0.172h-0.416c-0.238,0-0.328,0.156-0.283,0.484c0.065,0.481,1.555,5.293,1.795,5.774h0.088
			c0.22-0.349,2.122-4.876,2.253-5.425c0.133-0.549-0.044-0.834-0.372-0.834h-0.35c-0.133,0-0.153-0.062-0.153-0.172v-0.436
			c0-0.109,0.021-0.176,0.131-0.176c0.284,0,0.744,0.066,1.795,0.066c0.591,0,1.095-0.066,1.333-0.066
			c0.133,0,0.133,0.088,0.133,0.176v0.415c0,0.132,0,0.194-0.109,0.194h-0.35c-0.238,0-0.547,0.111-0.767,0.397
			c-0.479,0.591-1.927,3.914-3.437,7.351c-1.072,2.428-1.925,4.463-2.316,5.184c-0.309,0.568-0.7,1.423-1.859,1.423
			C153.299,24.965,152.883,24.506,152.883,23.85"/>
		<path fill="#FFFFFF" d="M167.423,17.768c-1.006-1.203-1.202-2.013-1.202-3.565c0-1.117,0.59-2.517,1.881-3.522
			c1.137-0.875,2.209-1.05,2.933-1.05c1.202,0,2.405,0.611,3.062,1.269c0.983,1.008,1.486,2.144,1.486,3.565
			c0,2.384-2.145,4.812-4.835,4.812C169.698,19.275,168.343,18.861,167.423,17.768 M173.745,14.246c0-2.43-1.772-3.959-2.888-3.959
			c-0.592,0-1.159,0.13-1.687,0.699c-0.854,0.875-1.157,1.771-1.157,3.435c0,1.226,0.133,2.056,0.832,3.063
			c0.502,0.721,1.137,1.137,2.162,1.137C172.674,18.621,173.745,16.586,173.745,14.246"/>
		<path fill="#FFFFFF" d="M177.814,10.941h-1.513c-0.108,0-0.149-0.045-0.108-0.24l0.09-0.657c0.021-0.129,0.089-0.151,0.263-0.151
			h1.269V9.477c0-2.166,0.611-3.586,1.469-4.549c1.158-1.269,2.361-1.729,3.586-1.729c1.027,0,1.99,0.393,1.99,1.224
			c0,0.525-0.567,0.942-0.92,0.942c-0.219,0-0.438-0.046-0.61-0.132c-0.196-0.109-0.438-0.395-0.524-0.504
			c-0.283-0.35-0.591-0.502-1.007-0.502c-0.567,0-1.157,0.152-1.641,0.767c-0.81,1.026-0.767,2.931-0.767,4.462v0.438h2.646
			c0.152,0,0.175,0.129,0.152,0.219l-0.108,0.722c-0.022,0.086-0.108,0.11-0.285,0.11h-2.405v1.947c0,2.58,0,4.594,0.021,4.832
			c0.042,0.373,0.107,0.57,0.568,0.57h1.246c0.196,0,0.239,0.042,0.239,0.175v0.351c0,0.174-0.043,0.263-0.151,0.263
			c-0.131,0-0.939-0.065-2.625-0.065c-1.203,0-2.317,0.065-2.496,0.065c-0.129,0-0.174-0.045-0.174-0.153v-0.482
			c0-0.11,0.045-0.152,0.219-0.152h1.051c0.417,0,0.504-0.264,0.525-0.766v-4.113V10.941L177.814,10.941z"/>
		<path fill="#FFFFFF" d="M40.917,38.734c-0.262-0.196-0.394-0.264-0.502-0.264c-0.131,0-0.219,0.15-0.35,0.369
			c-0.131,0.243-0.241,0.266-0.395,0.266c-0.13,0-0.24-0.11-0.197-0.352c0.087-0.547,0.307-3.324,0.372-3.958
			c0.021-0.132,0.066-0.132,0.153-0.132l0.328,0.021c0.088,0,0.13,0.045,0.13,0.176c0.022,0.699,0.066,1.424,0.788,2.537
			c0.657,1.024,1.861,1.619,3.062,1.619c1.313,0,2.976-0.812,2.976-2.776c0-2.255-1.618-3.086-3.368-3.697
			c-0.678-0.241-2.253-0.789-3.194-1.772c-0.722-0.723-1.094-1.75-1.094-3.192c0-1.097,0.678-2.165,1.355-2.802
			c0.788-0.743,1.882-1.049,3.063-1.049c1.247,0,2.209,0.369,2.581,0.545c0.198,0.11,0.307,0.091,0.417-0.021l0.284-0.262
			c0.109-0.091,0.174-0.132,0.284-0.132c0.109,0,0.173,0.175,0.173,0.369c0,0.769,0.286,2.998,0.309,3.481
			c0,0.106-0.023,0.151-0.11,0.174l-0.263,0.064c-0.065,0.021-0.109,0-0.131-0.064c-0.176-0.635-0.459-1.487-1.356-2.428
			c-0.59-0.638-1.356-0.94-2.385-0.94c-1.947,0-2.647,1.444-2.647,2.56c0,0.61,0.131,1.334,0.678,1.901
			c0.635,0.635,1.86,1.117,2.494,1.313c1.509,0.481,2.734,0.853,3.521,1.813c0.569,0.679,0.963,1.533,0.963,2.976
			c0,2.583-1.575,4.793-4.463,4.793C42.864,39.873,41.792,39.413,40.917,38.734"/>
		<path fill="#FFFFFF" d="M50.995,38.297c-1.007-1.201-1.204-2.011-1.204-3.564c0-1.115,0.591-2.516,1.881-3.521
			c1.138-0.877,2.209-1.051,2.932-1.051c1.204,0,2.407,0.612,3.063,1.271c0.985,1.004,1.487,2.144,1.487,3.563
			c0,2.385-2.143,4.812-4.835,4.812C53.269,39.807,51.913,39.391,50.995,38.297 M57.316,34.775c0-2.43-1.772-3.961-2.887-3.961
			c-0.591,0-1.16,0.134-1.685,0.701c-0.853,0.875-1.159,1.771-1.159,3.434c0,1.226,0.131,2.058,0.831,3.062
			c0.503,0.724,1.138,1.138,2.166,1.138C56.244,39.148,57.316,37.115,57.316,34.775"/>
		<path fill="#FFFFFF" d="M68.197,35.104c0,1.051,0,2.121,0.044,2.582c0.065,0.679,0.306,0.767,0.569,0.767
			c0.131,0,0.459,0,0.722-0.063c0.175-0.046,0.242,0,0.263,0.086l0.066,0.284c0.021,0.132-0.022,0.179-0.11,0.197l-2.297,0.767
			c-0.131,0.043-0.262,0.088-0.437,0.088c-0.088,0-0.174-0.045-0.197-0.266l-0.175-1.27H66.6c-0.612,0.854-1.882,1.531-2.977,1.531
			c-0.611,0-1.333-0.063-2.056-1.008c-0.897-1.156-0.852-1.88-0.852-4.285v-2.539c-0.022-0.609-0.328-0.764-0.832-0.83
			c-0.373-0.021-0.482-0.045-0.482-0.152v-0.396c0-0.129,0.044-0.174,0.241-0.174h1.947c0.131,0,0.219-0.021,0.307-0.045
			c0.087,0,0.174-0.021,0.24-0.021c0.153,0,0.263,0.11,0.24,0.265c-0.021,0.194-0.087,1.223-0.087,2.516v1.554
			c0,0.875-0.219,2.274,0.481,3.283c0.546,0.785,1.16,0.827,1.75,0.827s1.466-0.567,1.881-1.092c0.089-0.11,0.219-0.396,0.219-0.592
			v-5.205c-0.043-0.614-0.394-0.724-0.941-0.769c-0.372,0-0.481-0.043-0.481-0.151V30.62c0-0.179,0.044-0.197,0.262-0.197h2.033
			c0.154,0,0.264-0.021,0.373-0.045c0.109,0,0.197-0.021,0.263-0.021c0.132,0,0.219,0.109,0.197,0.219
			c-0.022,0.197-0.131,0.766-0.131,2.91v1.619h0.002V35.104z"/>
		<path fill="#FFFFFF" d="M72.996,36.811c0,1.642,0.744,1.924,1.138,1.924c0.503,0,1.137-0.088,1.443-0.282
			c0.11-0.063,0.196-0.044,0.264,0.043l0.109,0.194c0.065,0.088,0.021,0.178-0.044,0.24c-0.218,0.221-1.115,0.877-2.428,0.877
			c-1.073,0-2.123-1.029-2.123-1.858c0-0.896,0.065-2.821,0.065-3.13v-0.48c0-0.395,0.022-1.855,0.045-2.775H70.13
			c-0.197,0-0.327-0.088-0.327-0.265c0-0.176,0.13-0.237,0.394-0.396c0.524-0.307,2.208-2.01,2.494-2.756
			c0.065-0.176,0.175-0.217,0.306-0.217c0.174,0,0.219,0.152,0.219,0.326l-0.11,2.166h3.041c0.132,0,0.197,0.109,0.154,0.197
			l-0.219,0.766c-0.022,0.108-0.065,0.174-0.198,0.174h-2.822c-0.042,1.006-0.064,2.059-0.064,3.062v2.189H72.996L72.996,36.811z"/>
		<path fill="#FFFFFF" d="M78.013,27.623c0-1.336-0.264-1.576-1.049-1.84l-0.373-0.131c-0.131-0.045-0.153-0.065-0.153-0.131v-0.197
			c0-0.088,0.066-0.107,0.263-0.217l2.275-1.205c0.175-0.088,0.329-0.174,0.503-0.174c0.131,0,0.217,0.174,0.174,0.545
			s-0.065,4.812-0.065,5.908v1.396h0.108c0.766-0.917,2.035-1.42,2.999-1.42c0.918,0,1.553,0.279,2.165,0.875
			c0.985,0.918,0.941,2.033,0.941,3.215v1.246c0,1.229,0.044,2.582,0.044,2.998c0,0.262,0.35,0.328,0.81,0.328h0.372
			c0.175,0,0.24,0.043,0.24,0.195v0.328c0,0.174-0.044,0.262-0.174,0.262c-0.154,0-0.854-0.062-2.101-0.062
			c-1.072,0-1.858,0.062-2.057,0.062c-0.152,0-0.196-0.062-0.196-0.238v-0.371c0-0.109,0.022-0.176,0.153-0.176h0.502
			c0.372,0,0.81-0.047,0.832-0.416c0.022-0.309,0-1.467,0-2.164v-1.772c0-1.226-0.087-2.1-0.723-2.69
			c-0.437-0.414-0.897-0.611-1.442-0.611c-0.635,0-1.423,0.219-2.035,0.917c-0.198,0.241-0.438,0.681-0.438,1.073v4.769
			c0,0.7,0.065,0.897,0.481,0.897h0.656c0.153,0,0.241,0.043,0.241,0.176v0.371c0,0.152-0.043,0.24-0.175,0.24
			c-0.175,0-1.072-0.064-2.079-0.064c-1.094-0.002-1.924,0.064-2.122,0.064c-0.087,0-0.153-0.066-0.153-0.219v-0.395
			c0-0.154,0.088-0.176,0.329-0.176h0.459c0.35,0,0.678-0.09,0.723-0.352c0.065-0.416,0.065-2.822,0.065-4.246V27.623L78.013,27.623
			z"/>
		<path fill="#FFFFFF" d="M89.147,33.725c-0.044,0.198-0.066,0.547-0.066,1.051c0,2.146,1.356,3.765,3.107,3.765
			c1.333,0,2.273-0.767,2.646-1.485c0.044-0.09,0.132-0.134,0.197-0.109l0.284,0.152c0.067,0.021,0.11,0.088,0,0.325
			c-0.393,0.877-1.532,2.388-3.478,2.388c-1.247,0-2.624-0.371-3.435-1.555c-0.766-1.115-0.961-1.926-0.961-3.456
			c0-0.854,0.219-2.317,1.378-3.479c0.94-0.963,2.034-1.157,3.128-1.157c2.515,0,3.216,2.36,3.216,3.215
			c0,0.308-0.263,0.351-0.612,0.351h-5.404V33.725z M92.626,33.068c0.415,0,0.59-0.109,0.59-0.308c0-0.503-0.263-1.946-1.685-1.946
			c-0.962,0-1.881,0.635-2.297,2.254H92.626z"/>
		<path fill="#FFFFFF" d="M97.366,33.725c0-1.115-0.175-1.334-0.789-1.662l-0.416-0.22c-0.131-0.044-0.175-0.062-0.175-0.153v-0.131
			c0-0.088,0.043-0.129,0.175-0.193l2.166-1.116c0.131-0.065,0.219-0.088,0.306-0.088c0.132,0,0.154,0.132,0.154,0.262l0.109,1.513
			h0.087c0.656-1.01,1.686-1.904,2.626-1.904c0.742,0,1.115,0.459,1.115,0.964c0,0.632-0.523,1.071-0.92,1.071
			c-0.238,0-0.457-0.088-0.634-0.176c-0.176-0.107-0.438-0.177-0.722-0.177c-0.352,0-0.921,0.222-1.291,0.919
			c-0.131,0.242-0.22,0.637-0.22,0.699v4.598c0,0.678,0.153,0.896,0.613,0.896h1.028c0.131,0,0.151,0.065,0.151,0.196v0.395
			c0,0.133-0.021,0.197-0.106,0.197c-0.131,0-1.139-0.064-2.32-0.064c-1.356,0-2.275,0.064-2.406,0.064
			c-0.087,0-0.132-0.045-0.132-0.219v-0.373c0-0.152,0.045-0.196,0.242-0.196h0.853c0.329,0,0.482-0.132,0.482-0.414
			c0.021-0.722,0.021-1.488,0.021-2.627v-2.058h0.002V33.725z"/>
		<path fill="#FFFFFF" d="M112.08,38.361c0,0.353,0.195,0.461,0.48,0.461h0.698c0.198,0,0.24,0.063,0.24,0.195v0.352
			c0,0.152-0.042,0.24-0.174,0.24c-0.154,0-0.832-0.064-2.078-0.064c-1.116,0-1.813,0.064-1.97,0.064
			c-0.131,0-0.176-0.064-0.176-0.24v-0.352c0-0.152,0.064-0.195,0.283-0.195h0.635c0.242,0,0.416-0.108,0.438-0.504
			c0.021-0.568,0.046-1.27,0.046-1.836v-2.892c0-0.874,0-1.509-0.635-1.97c-0.523-0.393-1.053-0.393-1.598-0.393
			c-0.354,0-1.115,0.152-1.771,0.854c-0.438,0.48-0.505,1.072-0.505,1.488v4.525c0,0.59,0.064,0.725,0.523,0.725h0.547
			c0.178,0,0.221,0.064,0.221,0.22v0.37c0,0.133-0.043,0.195-0.153,0.195c-0.149,0-0.741-0.062-1.901-0.062
			c-1.114,0-1.813,0.062-1.946,0.062c-0.109,0-0.152-0.062-0.152-0.195v-0.395c0-0.131,0.043-0.195,0.218-0.195h0.635
			c0.285,0,0.438-0.066,0.438-0.438v-5.116c0-0.658-0.352-1.029-0.896-1.293l-0.176-0.089c-0.151-0.063-0.176-0.131-0.176-0.194
			v-0.107c0-0.111,0.088-0.176,0.197-0.219l1.881-1.053c0.176-0.088,0.309-0.151,0.396-0.151c0.106,0,0.15,0.088,0.175,0.262
			l0.151,1.335h0.043c0.637-0.789,1.901-1.597,3-1.597c0.653,0,1.332,0.132,1.856,0.481c0.656,0.438,1.203,1.527,1.203,2.076
			L112.08,38.361L112.08,38.361z"/>
		<path fill="#FFFFFF" d="M120.459,37.859c-1.576-1.486-2.34-4.026-2.34-6.125c0-2.033,0.654-4.135,2.229-5.795
			c1.117-1.187,3.086-2.211,5.471-2.211c1.99,0,3.633,0.742,4.421,1.201c0.282,0.178,0.393,0.152,0.438,0l0.174-0.634
			c0.045-0.134,0.088-0.134,0.282-0.134c0.198,0,0.241,0.044,0.241,0.354c0,0.414,0.438,3.631,0.547,4.241
			c0.021,0.11,0,0.196-0.087,0.222l-0.328,0.086c-0.108,0.021-0.151,0-0.219-0.174c-0.308-0.725-0.788-1.773-1.707-2.717
			c-0.918-0.938-2.077-1.682-3.808-1.683c-3.916,0-5.488,3.479-5.469,6.673c0,1.268,0.396,3.74,2.1,5.622
			c1.488,1.662,2.734,1.835,4.199,1.835c2.477,0,4.398-1.354,5.404-2.776c0.065-0.108,0.109-0.13,0.174-0.065L132.468,36
			c0.064,0.045,0.109,0.088,0.044,0.197c-1.312,1.902-3.434,3.676-6.52,3.676C123.411,39.873,121.771,39.062,120.459,37.859"/>
		<path fill="#FFFFFF" d="M139.566,36.941c0,1.246,0.261,1.639,0.654,1.639c0.35,0,0.655-0.173,0.766-0.326
			c0.089-0.111,0.133-0.154,0.22-0.088l0.219,0.175c0.067,0.066,0.109,0.177-0.022,0.394c-0.174,0.328-0.59,1.072-1.704,1.072
			c-0.787,0-1.356-0.57-1.554-1.466h-0.043c-0.461,0.548-1.183,1.007-2.166,1.333c-0.416,0.133-0.812,0.133-1.289,0.133
			c-0.527,0-1.313-0.438-1.313-1.814c0-1.008,0.46-1.883,2.188-2.646c0.984-0.438,2.121-0.963,2.473-1.268v-1.401
			c-0.044-0.37-0.064-0.938-0.307-1.224c-0.24-0.285-0.68-0.484-1.312-0.484c-0.438,0-1.115,0.178-1.42,0.465
			c-0.307,0.28-0.109,0.609-0.109,1.002c0,0.768-0.265,1.25-1.16,1.25c-0.351,0-0.522-0.197-0.522-0.701
			c0-0.699,0.61-1.529,1.509-2.059c0.918-0.547,1.686-0.764,2.668-0.764c1.028,0,1.442,0.307,1.752,0.59
			c0.458,0.461,0.479,0.962,0.479,1.555v3.348v1.289h-0.004V36.941z M137.969,34.732c-0.787,0.591-2.932,1.025-2.932,2.842
			c0,0.811,0.48,1.203,1.139,1.203c0.633,0,1.793-0.766,1.793-1.356V34.732z"/>
		<path fill="#FFFFFF" d="M145.082,33.025c0,1.136,0,4.438,0.021,5.117c0.021,0.373,0.107,0.68,0.567,0.68h0.983
			c0.197,0,0.24,0.063,0.24,0.195v0.373c0,0.129-0.043,0.219-0.131,0.219c-0.154,0-1.117-0.064-2.473-0.064
			c-1.398,0-2.273,0.064-2.473,0.064c-0.108,0-0.152-0.09-0.152-0.219v-0.373c0-0.152,0.044-0.195,0.283-0.195H143
			c0.243,0,0.461-0.153,0.482-0.549c0.021-0.678,0.021-4.44,0.021-5.707v-1.379c0-1.556-0.021-3.543-0.065-4.113
			c-0.043-0.744-0.393-1.092-1.092-1.311l-0.438-0.156c-0.108-0.041-0.134-0.062-0.134-0.108v-0.175
			c0-0.064,0.065-0.107,0.199-0.153c0.767-0.351,1.748-0.743,2.559-1.269c0.195-0.131,0.328-0.176,0.461-0.176
			c0.152,0,0.195,0.109,0.176,0.395c-0.021,1.203-0.089,5.754-0.089,6.957v1.947H145.082z"/>
		<path fill="#FFFFFF" d="M149.062,33.18c0-0.744-0.131-1.139-1.227-1.312c-0.152-0.021-0.195-0.062-0.195-0.153V31.52
			c0-0.066,0.043-0.109,0.151-0.152c0.701-0.264,1.531-0.613,2.362-1.072c0.175-0.088,0.283-0.131,0.414-0.131
			c0.111,0,0.135,0.107,0.111,0.261c-0.045,0.372-0.045,1.751-0.045,3.567v2.384c0,0.853,0,1.64,0.021,1.88
			c0.045,0.417,0.107,0.569,0.35,0.569h1.008c0.174,0,0.217,0.065,0.217,0.196v0.373c0,0.152-0.043,0.219-0.193,0.219
			c-0.176,0-1.184-0.064-2.102-0.064c-1.27,0-2.123,0.064-2.361,0.064c-0.108,0-0.178-0.045-0.178-0.174V39
			c0-0.131,0.067-0.175,0.222-0.175h1.069c0.24,0,0.328-0.087,0.351-0.437c0.021-0.658,0.021-1.334,0.021-1.992v-3.215h0.004V33.18z
			 M148.078,26.506c0-0.547,0.46-1.137,1.334-1.137c0.766,0,1.138,0.59,1.138,1.07c0,0.568-0.394,1.205-1.269,1.205
			C148.801,27.645,148.078,27.206,148.078,26.506"/>
		<path fill="#FFFFFF" d="M154.586,31.471h-1.509c-0.108,0-0.153-0.043-0.108-0.238l0.088-0.656
			c0.021-0.135,0.086-0.152,0.262-0.152h1.27v-0.416c0-2.165,0.609-3.587,1.467-4.549c1.158-1.271,2.362-1.729,3.588-1.729
			c1.026,0,1.99,0.394,1.99,1.224c0,0.526-0.568,0.942-0.919,0.942c-0.22,0-0.438-0.045-0.612-0.133
			c-0.197-0.109-0.438-0.395-0.524-0.503c-0.284-0.351-0.589-0.504-1.007-0.504c-0.567,0-1.158,0.153-1.643,0.769
			c-0.809,1.026-0.766,2.931-0.766,4.461v0.438h2.646c0.152,0,0.176,0.133,0.152,0.221l-0.107,0.723
			c-0.021,0.088-0.108,0.107-0.287,0.107h-2.404v1.946c0,2.581,0,4.597,0.021,4.835c0.045,0.371,0.109,0.568,0.57,0.568h1.245
			c0.196,0,0.239,0.043,0.239,0.174v0.352c0,0.176-0.043,0.264-0.151,0.264c-0.133,0-0.94-0.064-2.625-0.064
			c-1.204,0-2.319,0.064-2.493,0.064c-0.133,0-0.178-0.045-0.178-0.152v-0.482c0-0.107,0.045-0.15,0.221-0.15h1.051
			c0.414,0,0.502-0.264,0.523-0.768v-4.111V31.471L154.586,31.471z"/>
		<path fill="#FFFFFF" d="M159.777,38.297c-1.008-1.201-1.204-2.011-1.204-3.564c0-1.115,0.591-2.516,1.882-3.521
			c1.138-0.877,2.211-1.051,2.932-1.051c1.203,0,2.405,0.612,3.062,1.271c0.984,1.004,1.486,2.144,1.486,3.563
			c0,2.385-2.146,4.812-4.834,4.812C162.052,39.807,160.695,39.391,159.777,38.297 M166.1,34.775c0-2.43-1.771-3.961-2.889-3.961
			c-0.591,0-1.159,0.134-1.684,0.701c-0.854,0.875-1.16,1.771-1.16,3.434c0,1.226,0.131,2.058,0.833,3.062
			c0.502,0.724,1.137,1.138,2.163,1.138C165.027,39.148,166.1,37.115,166.1,34.775"/>
		<path fill="#FFFFFF" d="M169.682,33.725c0-1.115-0.175-1.334-0.787-1.662l-0.414-0.22c-0.133-0.044-0.176-0.062-0.176-0.153
			v-0.129c0-0.09,0.043-0.131,0.176-0.195l2.164-1.116c0.131-0.065,0.219-0.088,0.308-0.088c0.131,0,0.151,0.132,0.151,0.262
			l0.109,1.513h0.087c0.656-1.01,1.687-1.904,2.626-1.904c0.744,0,1.115,0.459,1.115,0.964c0,0.632-0.525,1.071-0.919,1.071
			c-0.239,0-0.46-0.088-0.636-0.176c-0.174-0.107-0.438-0.177-0.721-0.177c-0.353,0-0.918,0.222-1.289,0.919
			c-0.131,0.242-0.223,0.637-0.223,0.699v4.598c0,0.678,0.153,0.896,0.613,0.896h1.027c0.131,0,0.151,0.065,0.151,0.196v0.395
			c0,0.133-0.021,0.197-0.108,0.197c-0.131,0-1.139-0.064-2.318-0.064c-1.354,0-2.271,0.064-2.406,0.064
			c-0.087,0-0.131-0.045-0.131-0.219v-0.373c0-0.152,0.044-0.196,0.24-0.196h0.854c0.328,0,0.481-0.132,0.481-0.414
			c0.021-0.722,0.021-1.488,0.021-2.627v-2.058h0.004V33.725z"/>
		<path fill="#FFFFFF" d="M184.359,38.361c0,0.353,0.197,0.461,0.48,0.461h0.7c0.194,0,0.241,0.063,0.241,0.195v0.352
			c0,0.152-0.047,0.24-0.18,0.24c-0.148,0-0.828-0.064-2.076-0.064c-1.114,0-1.814,0.064-1.969,0.064
			c-0.132,0-0.176-0.064-0.176-0.24v-0.352c0-0.152,0.064-0.195,0.285-0.195h0.634c0.24,0,0.416-0.108,0.438-0.504
			c0.021-0.568,0.043-1.27,0.043-1.836v-2.892c0-0.874,0-1.509-0.635-1.97c-0.525-0.393-1.051-0.393-1.6-0.393
			c-0.35,0-1.111,0.152-1.771,0.854c-0.438,0.48-0.504,1.072-0.504,1.488v4.525c0,0.59,0.066,0.725,0.525,0.725h0.545
			c0.176,0,0.221,0.064,0.221,0.22v0.37c0,0.133-0.045,0.195-0.152,0.195c-0.154,0-0.744-0.062-1.904-0.062
			c-1.113,0-1.812,0.062-1.943,0.062c-0.109,0-0.153-0.062-0.153-0.195v-0.395c0-0.131,0.044-0.195,0.219-0.195h0.634
			c0.284,0,0.438-0.066,0.438-0.438v-5.116c0-0.658-0.351-1.029-0.897-1.293l-0.175-0.089c-0.153-0.063-0.175-0.131-0.175-0.194
			v-0.107c0-0.111,0.088-0.176,0.197-0.219l1.879-1.051c0.177-0.09,0.308-0.153,0.396-0.153c0.109,0,0.153,0.088,0.173,0.262
			l0.156,1.335h0.043c0.635-0.789,1.902-1.597,2.997-1.597c0.655,0,1.335,0.132,1.86,0.481c0.654,0.438,1.201,1.527,1.201,2.076
			v5.645H184.359L184.359,38.361z"/>
		<path fill="#FFFFFF" d="M187.992,33.18c0-0.744-0.131-1.139-1.227-1.312c-0.15-0.021-0.195-0.062-0.195-0.153V31.52
			c0-0.066,0.045-0.109,0.152-0.152c0.698-0.264,1.531-0.613,2.362-1.072c0.174-0.088,0.284-0.131,0.416-0.131
			c0.106,0,0.13,0.107,0.106,0.261c-0.043,0.372-0.043,1.751-0.043,3.567v2.384c0,0.853,0,1.64,0.021,1.88
			c0.043,0.417,0.107,0.569,0.35,0.569h1.006c0.179,0,0.221,0.065,0.221,0.196v0.373c0,0.152-0.042,0.219-0.195,0.219
			c-0.177,0-1.183-0.064-2.101-0.064c-1.271,0-2.122,0.064-2.363,0.064c-0.106,0-0.174-0.045-0.174-0.174V39
			c0-0.131,0.063-0.175,0.219-0.175h1.07c0.239,0,0.327-0.087,0.353-0.437c0.021-0.658,0.021-1.334,0.021-1.992L187.992,33.18
			L187.992,33.18z M187.009,26.506c0-0.547,0.46-1.137,1.335-1.137c0.766,0,1.139,0.59,1.139,1.07c0,0.568-0.396,1.205-1.271,1.205
			C187.73,27.645,187.009,27.206,187.009,26.506"/>
		<path fill="#FFFFFF" d="M198.078,36.941c0,1.246,0.263,1.639,0.654,1.639c0.353,0,0.658-0.173,0.768-0.326
			c0.087-0.111,0.132-0.154,0.219-0.088l0.219,0.175c0.063,0.066,0.11,0.177-0.021,0.394c-0.175,0.328-0.589,1.072-1.706,1.072
			c-0.786,0-1.354-0.57-1.554-1.466h-0.046c-0.457,0.548-1.18,1.007-2.163,1.333c-0.415,0.133-0.812,0.133-1.29,0.133
			c-0.525,0-1.312-0.438-1.312-1.814c0-1.008,0.461-1.883,2.188-2.646c0.982-0.438,2.121-0.963,2.472-1.268v-1.401
			c-0.043-0.37-0.065-0.938-0.31-1.224c-0.238-0.285-0.676-0.484-1.311-0.484c-0.438,0-1.115,0.178-1.423,0.465
			c-0.306,0.28-0.108,0.609-0.108,1.002c0,0.768-0.263,1.25-1.16,1.25c-0.35,0-0.523-0.197-0.523-0.701
			c0-0.699,0.612-1.529,1.512-2.059c0.918-0.547,1.684-0.764,2.67-0.764c1.026,0,1.44,0.307,1.748,0.59
			c0.461,0.461,0.48,0.962,0.48,1.555v3.348L198.078,36.941L198.078,36.941z M196.48,34.732c-0.787,0.591-2.934,1.025-2.934,2.842
			c0,0.811,0.48,1.203,1.141,1.203c0.635,0,1.793-0.766,1.793-1.356V34.732z"/>
	</g>
</g>
</svg>
